<?xml version="1.0" encoding="utf-8"?>
<!-- Generator: Adobe Illustrator 27.5.0, SVG Export Plug-In . SVG Version: 6.00 Build 0)  -->
<svg version="1.1" id="Layer_1" xmlns="http://www.w3.org/2000/svg" xmlns:xlink="http://www.w3.org/1999/xlink" x="0px" y="0px"
	 viewBox="0 0 64 64" style="enable-background:new 0 0 64 64;" xml:space="preserve">
<style type="text/css">
	.st0{fill:#082141;}
	.st1{fill:#D8D8D8;}
</style>
<path class="st0" d="M13.8,23c-1.2,0.1-2.2,0.4-3.3,0.9c-2,1-3.4,2.8-4.1,4.9c-0.5,1.5-0.5,3.2-0.2,4.7c0.6,2.4,2.2,4.5,4.4,5.6
	c0.8,0.4,1.7,0.7,2.7,0.8c0.4,0,38,0,38.4,0c1.9-0.2,3.6-1.1,4.9-2.4c1.4-1.4,2.2-3.3,2.4-5.2c0.1-0.7,0-1.6-0.1-2.2
	c-0.3-2.1-1.5-4-3.1-5.3c-1.2-0.9-2.5-1.5-4.1-1.7c-0.3,0-1.1,0-19.1,0C22.4,23,13.9,23,13.8,23z M51.6,25c1.4,0.2,2.6,0.8,3.6,1.8
	c1.1,1,1.7,2.3,1.9,3.9c0,0.3,0,1.4,0,1.7c-0.3,1.7-1.1,3.2-2.3,4.3c-0.9,0.7-1.9,1.2-3.1,1.4c-0.2,0-1.4,0-18.8,0
	c-12.6,0-18.6,0-18.9,0c-0.9-0.1-1.7-0.3-2.5-0.7c-2.7-1.4-4.1-4.6-3.3-7.6c0.6-2.1,2.1-3.8,4.1-4.5c0.4-0.2,1-0.3,1.5-0.3
	c0.1,0,8.6,0,18.9,0C50.3,25,51.3,25,51.6,25z M51.7,27.6c-0.3,0.1-0.6,0.3-0.7,0.5c-0.1,0.3,0,0.6,0.2,0.8c0.2,0.2,0.5,0.3,0.8,0.3
	c0.5,0,0.8-0.2,1-0.5c0-0.1,0.1-0.1,0.1-0.3c0-0.2,0-0.2-0.1-0.3C52.7,27.7,52.2,27.5,51.7,27.6z M11.7,28.2v0.6l0.1,0.1
	c0.1,0.1,0.1,0.1,0.1,0.2c0,0.2,0,4,0,4.2c0,0.1-0.1,0.1-0.1,0.2l-0.1,0.1v0.6v0.6l1.7,0c1.8,0,1.9,0,2.4-0.1
	c0.4-0.1,0.8-0.3,0.9-0.5c0.2-0.3,0.3-0.7,0.4-1.2c0-0.1,0-0.7,0-1.5c0-1.7,0-2.3-0.2-2.8c-0.2-0.8-0.8-1.1-1.9-1.2
	c-0.1,0-0.9,0-1.8,0h-1.6V28.2z M14.8,29.3c0.1,0,0.1,0.1,0.1,0.2c0,0.1,0,0.1,0.1,1.8c0,1.8,0,1.9-0.1,2c-0.1,0.1-0.2,0.1-0.5,0.2
	l-0.2,0v-2.1v-2.1l0.3,0C14.7,29.2,14.8,29.2,14.8,29.3z M23.1,28.2v0.6l0.1,0.1c0.2,0.2,0.2,0.1,0.2,2.4c0,2.3,0,2.1-0.2,2.2
	l-0.1,0.1v0.6v0.6h2.6h2.6v-1.8v-1.8h-1h-1V32c0,1,0,1.1-0.2,1.2c-0.1,0.1-0.1,0.1-0.3,0.1l-0.2,0l0-2c0-1.6,0-2.1,0-2.1
	c0-0.1,0.1-0.2,0.2-0.3l0.1,0v-0.6v-0.6h-1.4h-1.4V28.2z M45.1,28.2l0,0.6l0.1,0c0,0,0.1,0.1,0.1,0.1c0,0.1,0,0.1,0,2.2
	c0,2,0,2.2,0,2.3c0,0.1-0.1,0.1-0.1,0.2l-0.1,0.1v0.6v0.6h1.2h1.2v-0.6v-0.6l-0.1-0.1c-0.1-0.1-0.1-0.2-0.1-1.5V31l0.1,0
	c0,0,0.1,0,0.2,0c0.2,0,0.3,0.1,0.4,0.2l0.1,0.1l0,1.5c0,1.3,0,1.8,0.1,2.1l0,0.1l1,0l1,0v-0.6v-0.6l-0.1-0.1
	c-0.1-0.1-0.1-0.2-0.1-1.5c0-0.6,0-1.2,0-1.3c-0.1-0.6-0.3-0.9-0.6-1.1c-0.2-0.1-0.4-0.2-0.8-0.2c-0.5,0-0.7,0.1-1.1,0.2l-0.2,0.1
	v-1.1v-1.1h-1.1h-1.1V28.2z M18.2,28.6v0.3h2.1h2.1v-0.3v-0.3h-2.1h-2.1V28.6z M19.8,29.5c0,0-0.1,0-0.2,0c-0.7,0.1-1.1,0.3-1.3,0.8
	c-0.2,0.4-0.2,0.5-0.2,1.8c0,1.5,0,1.7,0.2,2.1c0.2,0.3,0.4,0.5,0.7,0.6c0.6,0.2,1.7,0.3,2.6,0.1c0.4-0.1,0.8-0.3,1-0.5l0.1-0.1
	l0-0.7l0-0.7h-1h-1l0,0.2c0,0.4-0.1,0.5-0.4,0.5c-0.2,0-0.2,0-0.3-0.2c0-0.1,0-0.2-0.1-0.5l0-0.4h1.4h1.4l0-0.7c0-0.5,0-0.8,0-1
	c-0.1-0.7-0.4-1.1-1-1.3c-0.4-0.1-0.6-0.1-1.2-0.2C20.1,29.5,19.8,29.5,19.8,29.5z M20.5,30.7c0.1,0.1,0.2,0.2,0.2,0.5l0,0.3h-0.4
	H20l0-0.3c0-0.3,0.1-0.4,0.2-0.5C20.2,30.7,20.4,30.7,20.5,30.7z M30.6,29.5c0,0-0.1,0-0.2,0c-0.8,0.1-1.2,0.4-1.4,1
	c-0.1,0.4-0.1,0.4-0.1,1.8c0,1.3,0,1.3,0.1,1.5c0.2,0.8,0.7,1.1,1.9,1.2c0.4,0,1,0,1.3-0.1c0.7-0.1,1.1-0.4,1.2-1
	c0.1-0.3,0.1-0.5,0.1-1.9l0-1.2l-0.1-0.2c-0.2-0.7-0.5-1-1.3-1.1C31.9,29.5,30.8,29.4,30.6,29.5z M31.4,30.8
	c0.1,0.1,0.1,0.2,0.1,1.5l0,1.2l-0.1,0.1c-0.1,0.3-0.5,0.3-0.6,0c0-0.1,0-0.1-0.1-1.3c0-1.3,0-1.4,0.1-1.5c0.1-0.1,0.1-0.1,0.3-0.1
	C31.3,30.7,31.4,30.7,31.4,30.8z M37.1,29.5c-0.3,0.1-0.6,0.2-0.9,0.3l-0.1,0.1v-0.2v-0.2h-1.1H34v0.6l0,0.6l0.1,0
	c0,0,0.1,0.1,0.1,0.1c0,0.1,0,0.1,0,1.2c0,1.1,0,1.2,0,1.3c0,0.1-0.1,0.1-0.1,0.2L34,33.7v0.6v0.6h1.2h1.2v-0.6v-0.6l-0.1,0
	c-0.1-0.1-0.1-0.2-0.2-0.4c0-0.1,0-0.6,0-1.2V31l0.1,0c0.1,0,0.3,0,0.4,0c0.1,0,0.1,0.1,0.2,0.2c0,0.1,0,0.2,0.1,1.6
	c0,0.8,0,1.6,0,1.6c0,0,0,0.2,0,0.3l0,0.2h1h1v-0.6v-0.6l-0.1-0.1c-0.2-0.1-0.1-0.1-0.2-1.5c0-0.9,0-1.4,0-1.5
	c-0.1-0.8-0.5-1.1-1.3-1.1C37.4,29.5,37.2,29.5,37.1,29.5z M40.8,29.5c-0.2,0-0.4,0.1-0.5,0.2c-0.3,0.2-0.5,0.5-0.6,1.1
	c0,0.2,0,2.4,0,2.7c0.1,0.8,0.3,1.2,0.9,1.4c0.1,0,0.2,0,0.4,0c0.4,0,0.8,0,1.2-0.2l0.2-0.1v0.3c0,0.5-0.1,0.7-0.2,0.8
	c-0.3,0.1-0.5-0.1-0.5-0.4l0-0.1h-0.9h-0.9v0.7v0.7l0.2,0.1c0.6,0.3,1.2,0.4,2,0.4c0.7,0,1.1,0,1.4-0.3c0.4-0.2,0.7-0.6,0.8-1
	c0-0.2,0-0.2,0.1-2.4c0-1.8,0-2.2,0-2.3c0-0.1,0.1-0.2,0.2-0.2c0,0,0-0.1,0-0.6v-0.6h-1.1h-1.1v0.2c0,0.1,0,0.2,0,0.2
	c0,0-0.1,0-0.1-0.1C41.9,29.6,41.3,29.4,40.8,29.5z M42.3,31L42.3,31l0.1,1.2v1.2l-0.1,0c-0.1,0.1-0.3,0.1-0.4,0
	c-0.2-0.1-0.2-0.3-0.2-1.2c0-0.9,0-1.1,0.2-1.2C42,30.9,42.1,30.9,42.3,31z M50.8,30.2l0,0.6l0.1,0c0,0,0.1,0.1,0.1,0.1
	c0,0.1,0,0.1,0,1.3c0,1.3,0,1.3-0.2,1.5l-0.1,0.1v0.6v0.6H52h1.2v-0.6v-0.6l-0.1-0.1c0,0-0.1-0.1-0.1-0.2c0-0.1,0-0.5,0-2l0-1.9
	h-1.1h-1.1V30.2z"/>
<path class="st1" d="M56,64H8c-4.4,0-8-3.6-8-8V8c0-4.4,3.6-8,8-8h48c4.4,0,8,3.6,8,8v48C64,60.4,60.4,64,56,64z M8,1
	C4.1,1,1,4.1,1,8v48c0,3.9,3.1,7,7,7h48c3.9,0,7-3.1,7-7V8c0-3.9-3.1-7-7-7H8z"/>
</svg>
