<?xml version="1.0" encoding="utf-8"?>
<!-- Generator: Adobe Illustrator 27.5.0, SVG Export Plug-In . SVG Version: 6.00 Build 0)  -->
<svg version="1.1" id="Layer_1" xmlns="http://www.w3.org/2000/svg" xmlns:xlink="http://www.w3.org/1999/xlink" x="0px" y="0px"
	 viewBox="0 0 64 64" style="enable-background:new 0 0 64 64;" xml:space="preserve">
<style type="text/css">
	.st0{fill:#1E293B;}
	.st1{fill:#F58320;}
	.st2{fill:#D8D8D8;}
</style>
<path class="st0" d="M24.8,45c-1.2-0.7-2.3-1.5-3.2-2.5c-0.3,0.3-0.6,0.6-1,0.9c-0.2,0.1-0.4,0.2-0.7,0.3c5.1,5.6,13.5,7,20.1,3.2
	c0.5-0.3,0.7-0.9,0.4-1.4c-0.1-0.2-0.2-0.3-0.4-0.4c-0.3-0.2-0.7-0.2-1,0C34.7,47.6,29.2,47.6,24.8,45z M24.8,20.2
	c1.2-0.7,2.5-1.2,3.8-1.5c-0.2-0.4-0.3-0.9-0.3-1.3c0-0.2,0-0.5,0.1-0.7c-7.4,1.7-12.7,8.2-12.8,15.8c0,0.6,0.5,1,1,1
	c0.2,0,0.4,0,0.5-0.1c0.3-0.2,0.5-0.5,0.5-0.8C17.7,27.4,20.4,22.7,24.8,20.2z M46.3,32.6c0,1.4-0.2,2.8-0.6,4.1
	c0.4,0.1,0.9,0.2,1.3,0.4c0.2,0.1,0.4,0.3,0.6,0.4c2.3-7.3-0.7-15.1-7.3-19c-0.5-0.3-1.1-0.1-1.4,0.4c-0.1,0.1-0.1,0.3-0.1,0.5
	c0,0.4,0.2,0.7,0.5,0.9C43.7,22.9,46.3,27.6,46.3,32.6z M32,25.8c3.8,0,6.8,3,6.8,6.8s-3,6.8-6.8,6.8s-6.8-3-6.8-6.8
	S28.2,25.8,32,25.8z M32,23.8c-4.9,0-8.8,3.9-8.8,8.8s3.9,8.8,8.8,8.8s8.8-4,8.8-8.8C40.8,27.7,36.9,23.8,32,23.8z"/>
<path class="st1" d="M32,15c1.3,0,2.4,1.1,2.4,2.4s-1.1,2.4-2.4,2.4c-1.3,0-2.4-1.1-2.4-2.4S30.7,15,32,15z M18.8,37.9
	c1.3,0,2.4,1.1,2.4,2.4c0,1.3-1.1,2.4-2.4,2.4s-2.4-1.1-2.4-2.4C16.4,38.9,17.5,37.9,18.8,37.9z M45.2,37.9c1.3,0,2.4,1.1,2.4,2.4
	c0,1.3-1.1,2.4-2.4,2.4s-2.4-1-2.4-2.3S43.9,37.9,45.2,37.9z M34,31c0-1.1-0.9-2-2-2s-2,0.9-2,2c0,0.7,0.4,1.4,1,1.7l-0.6,3.1
	c0,0.2,0.1,0.4,0.3,0.4c0,0,0,0,0.1,0h2.5c0.2,0,0.3-0.1,0.3-0.3c0,0,0,0,0-0.1L33,32.7C33.6,32.4,34,31.7,34,31z"/>
<path class="st2" d="M56,64H8c-4.4,0-8-3.6-8-8V8c0-4.4,3.6-8,8-8h48c4.4,0,8,3.6,8,8v48C64,60.4,60.4,64,56,64z M8,1
	C4.2,1,1,4.2,1,8v48c0,3.8,3.2,7,7,7h48c3.8,0,7-3.2,7-7V8c0-3.8-3.2-7-7-7H8z"/>
</svg>
