<?xml version="1.0" encoding="UTF-8"?>
<svg xmlns="http://www.w3.org/2000/svg" viewBox="0 0 1200 1200">
  <path fill="#1a3258" d="M634.11 174.03q143.93 82.4 287.75 164.99c24.82 14.26 50.74 25.17 79.65 17.28q16.78-4.57 31.01-14.43.91-.63.94.47 1.37 47.94 2.8 96.41.02.78-.88 1.29-1 .56-1.1.63-17.71 12.46-37.54 17.07c-25.79 5.98-51.04-4.62-73.1-17.27Q736.53 333.19 549.42 225.92q-.45-.26-.57-.76l-27.01-114.17a.25.25 0 0 0-.48 0l-73.3 312.29a.5.49 21.5 0 1-.73.31q-166.2-95.24-332.52-190.64c-33.56-19.24-69.72-20.31-101.98 2.54a.31.31 0 0 1-.49-.25l-2.79-96.79a1.16 1.15 71 0 1 .47-.97c19.46-14.42 43.72-22.96 68.42-18.43 15.92 2.92 29.02 9.2 44.23 17.93q132.02 75.78 263.99 151.44a.34.34 0 0 0 .5-.21q31.99-127.03 63.99-254.03 4.64-18.44 21.55-23.23 5.19-1.48 16.7-1.47l77.97.04c16.35.01 27.22 1.8 35.42 16.04q.25.44.76.44h47.95c16.31 0 31.6 10.16 36.2 26.1 3.07 10.65 1.57 27.18 1.54 39.32a.91.9-14.7 0 1-.47.79q-4 2.16-8.5 2.89a.94.93 71.8 0 1-.98-.5c-3.92-7.85-3.63-18.07-16.53-14.07q-23.03 7.13-45.86 14.13a4.48 4.47 74 0 0-3.01 5.44l19.61 73.14q.14.53.61.79Z"></path>
  <path fill="#1a3258" d="M49.49 247.7c24.3-5.43 49.88 4.1 70.92 16.16q160.74 92.15 321.24 184.22a.89.88-69.1 0 1 .42.96l-20.46 87.39a.42.42 0 0 1-.62.27Q273.41 452 125.76 367.39c-19.38-11.11-41.94-22.14-64.71-21.02-16.76.82-34.12 7.9-47.97 17.27q-.71.48-.74-.38l-2.79-96.53q-.01-.47.37-.75 19.06-13.7 39.57-18.28ZM584.09 373.89a1.33 1.33 0 0 1-.64-.86l-26.97-114.79a.35.35 0 0 1 .52-.39q186.96 107.21 374.03 214.59c33.13 19.02 70 20.54 101.75-2.55q.66-.48.68.34l2.79 96.76q.02.46-.36.73c-16.28 11.42-36.69 20.35-56.95 19.78-16.14-.46-35.41-7.56-49.38-15.56Q756.97 473.1 584.09 373.89Z"></path>
  <path fill="#1a3258" d="M394.61 649.71c-91.99-52.76-183.97-105.62-276.09-158.2-16.63-9.49-37.15-17.52-55.79-17.05-17.35.44-35.46 7.65-49.66 17.38q-.7.48-.72-.36l-2.8-96.73q-.01-.45.35-.71 18.49-13.13 39.4-18.22c29.83-7.25 59.16 9.25 83.87 23.43q140.92 80.84 281.87 161.7a.94.94 0 0 1 .45 1.03l-20.45 87.54a.29.29 0 0 1-.43.19ZM618.75 521.91a.8.79-81.9 0 1-.37-.5l-27.12-115.16a.34.33-82 0 1 .49-.37q161.56 92.73 323.32 185.53c11.82 6.77 23.54 14.12 35.75 18.32q44.16 15.18 82.02-11.76a.38.38 0 0 1 .6.3l2.81 96.73a.9.89 71.4 0 1-.38.77q-16.37 11.68-35.63 17.18c-28.19 8.05-54.68-3.69-78.63-17.42Q770.46 608.9 618.75 521.91Z"></path>
  <path fill="#1a3258" d="M367.85 762.48c-81.61-46.69-163.11-93.55-244.7-140.25-14.72-8.43-28.44-14.56-43.89-18.02-22.78-5.11-47.2 2.87-66.17 15.68a.48.47-17.6 0 1-.74-.38l-2.81-96.53q-.01-.49.39-.77 18.58-13.19 39.13-18.16c26.99-6.54 54.32 6.32 77.45 19.58Q257.3 598.61 388.2 673.72q1.03.6.76 1.76l-20.37 86.68a.5.5 0 0 1-.74.32ZM653.5 669.95a.83.82-81.4 0 1-.39-.53l-27.04-115.07a.26.26 0 0 1 .38-.29q153.73 88.11 307.58 176.39 13.66 7.84 33.07 11.51c23.54 4.43 46.44-1.97 65.76-15.71a.37.36-18.8 0 1 .58.28l2.81 96.71q.01.45-.36.71c-14.36 10.12-32.04 18.28-49.68 19.69-19.53 1.57-41.37-6.69-58.26-16.35Q791 748.89 653.5 669.95ZM1185.43 927.69a65.05 60.26 0 0 1-65.05 60.26 65.05 60.26 0 0 1-65.05-60.26 65.05 60.26 0 0 1 65.05-60.26 65.05 60.26 0 0 1 65.05 60.26Zm-11.74-.093a53.32 49.42-.1 0 0-53.406-49.327 53.32 49.42-.1 0 0-53.234 49.513 53.32 49.42-.1 0 0 53.406 49.327 53.32 49.42-.1 0 0 53.234-49.513ZM361.94 1046.31c-30.08-13.78-55.2-36.59-59.45-70.81-4.14-33.35 9.17-65.3 37.59-83.93 44.67-29.3 102.31-24.64 149.27-3.9q.4.18.4.62v55.62a.29.28 17.5 0 1-.45.23c-7.41-5.16-15.53-10.94-22.94-14.76-16.31-8.39-34.07-11.61-52.35-11.62-24.37-.02-55.04 13.18-51.39 43.09 2.55 20.96 21.64 32.83 38.98 40.66 15.85 7.16 33.92 14.95 47.69 22.32 36.65 19.61 57.39 55.51 47.48 97.46-10.7 45.28-53.74 71.9-98.22 73.28-30.89.95-64.55-.68-94.23-10.17a1.92 1.91 6.5 0 1-1.32-1.65l-5.52-58.98a.14.14 0 0 1 .2-.13q34.79 19.2 73.27 22.81 13.12 1.23 19.96.63c20.26-1.76 43.34-13.59 45.57-36.31 1.82-18.46-8.38-32.06-24.36-40.09q-30.77-15.47-50.18-24.37ZM588.01 1133.96 569 1188.29a.31.31 0 0 1-.29.21h-59.22a.31.31 0 0 1-.29-.42l109.51-287.02a.31.31 0 0 0-.01-.22l-10.29-25.66a.31.31 0 0 1 .29-.43h65.66a.31.31 0 0 1 .29.21l105.83 294.85a.31.31 0 0 0 .58.01l102.61-268.79a.31.31 0 0 0-.01-.22l-10.37-25.63a.31.31 0 0 1 .29-.43h65.59a.31.31 0 0 1 .29.21l112.41 313.13a.31.31 0 0 1-.29.41h-65.73a.31.31 0 0 1-.29-.21l-18.95-54.33a.31.31 0 0 0-.29-.21H853.26a.31.31 0 0 0-.29.21l-19.08 54.33a.31.31 0 0 1-.29.21H720.91a.31.31 0 0 1-.29-.21l-18.96-54.33a.31.31 0 0 0-.29-.21H588.3a.31.31 0 0 0-.29.21Zm59.44-164.66a.35.35 0 0 0-.66-.01l-43.58 121.49a.35.35 0 0 0 .33.47h82.42a.35.35 0 0 0 .33-.46L647.45 969.3Zm264.81-.01a.35.35 0 0 0-.67-.01l-43.41 121.5a.35.35 0 0 0 .33.47h82.35a.35.35 0 0 0 .33-.46l-38.93-121.5ZM259 1068c0 46.23-16.56 93.82-61.55 114.91-27.39 12.83-57.92 14.52-87.71 10.85-72.05-8.87-96.67-59.76-96.71-125.96q-.07-96.02-.02-192.05 0-.5.5-.5h59.73a.54.53 0 0 1 .54.53q-.08 95.86-.05 191.97c.01 49.31 26.42 86.07 80.24 76.69 35.98-6.26 49.93-37 49.9-70.44q-.12-99.11-.14-198.22 0-.53.52-.53l54.3-.01a.45.45 0 0 1 .45.45V1068Z"></path>
  <path fill="#1a3258" d="M1113.75 935.5v20a.5.5 0 0 1-.5.5H1097q-.5 0-.5-.5v-56.75a.7.7 0 0 1 .5-.67c12.14-3.43 28.79-5.39 40.48 1.25 14.5 8.24 9.72 23.77-3.61 29.94a.47.47 0 0 0-.14.76l24.72 25.09q.62.63-.26.63h-20.47a1.37 1.36 69.3 0 1-1.03-.47l-17.48-19.97a.94.92 68.5 0 0-.69-.31h-4.27q-.5 0-.5.5Zm0-29.01v18.36a.52.52 0 0 0 .52.52h4.13a9.61 9.08 0 0 0 9.61-9.08v-1.24a9.61 9.08 0 0 0-9.61-9.08h-4.13a.52.52 0 0 0-.52.52Z"></path>
</svg>
