<?xml version="1.0" encoding="UTF-8"?>
<svg xmlns="http://www.w3.org/2000/svg" xmlns:xlink="http://www.w3.org/1999/xlink" width="1549.64" height="422.99" viewBox="0 0 1549.64 422.99">
  <defs>
    <mask id="a" x="319.23" y="85.36" width="247.93" height="247.93" maskUnits="userSpaceOnUse">
      <path d="M567.16,162.58q0-4.43,0-8.83c0-2.48,0-5-.11-7.44a108.57,108.57,0,0,0-1.43-16.19,54.46,54.46,0,0,0-5.07-15.39A51.84,51.84,0,0,0,537.9,92.11,54.86,54.86,0,0,0,522.5,87a108.56,108.56,0,0,0-16.19-1.42c-2.48-.07-5-.09-7.44-.11-2.95,0-5.89,0-8.84,0l-34.19-.12H430.26l-33.59.12c-2.95,0-5.9,0-8.85,0-2.49,0-5,0-7.46.11A109.22,109.22,0,0,0,364.13,87a54.55,54.55,0,0,0-15.42,5.07A51.79,51.79,0,0,0,326,114.73a54.5,54.5,0,0,0-5.09,15.39,108.57,108.57,0,0,0-1.43,16.19c-.06,2.48-.09,5-.11,7.44,0,2.94-.17,6.6-.17,9.54v59l.16,33.83q0,4.43,0,8.84c0,2.49.05,5,.11,7.45a109,109,0,0,0,1.43,16.22A54.86,54.86,0,0,0,326,304a51.84,51.84,0,0,0,22.69,22.66,54.85,54.85,0,0,0,15.43,5.08,107.64,107.64,0,0,0,16.22,1.42c2.49.07,5,.1,7.46.11,2.95,0,5.9,0,8.85,0H490c3,0,5.89,0,8.84,0,2.48,0,5,0,7.44-.11a107.49,107.49,0,0,0,16.2-1.42,54.8,54.8,0,0,0,15.39-5.08A51.79,51.79,0,0,0,560.54,304a54.48,54.48,0,0,0,5.07-15.41A108.84,108.84,0,0,0,567,272.38c.06-2.48.09-5,.11-7.45q0-4.41,0-8.84V162.58" fill="#fff" fill-rule="evenodd"></path>
    </mask>
    <linearGradient id="b" x1="468.27" y1="588.52" x2="468.27" y2="581.58" gradientTransform="matrix(35.75, 0, 0, -35.75, -16297.63, 21124.86)" gradientUnits="userSpaceOnUse">
      <stop offset="0" stop-color="#ffe000"></stop>
      <stop offset="0.51" stop-color="#ffbc00"></stop>
      <stop offset="0.75" stop-color="#ff9d00"></stop>
      <stop offset="1" stop-color="#ff6a00"></stop>
    </linearGradient>
    <mask id="c" x="284.63" y="50.76" width="317.13" height="317.13" maskUnits="userSpaceOnUse">
      <rect x="319.23" y="85.36" width="247.93" height="247.93" fill="#fff"></rect>
    </mask>
    <mask id="d" x="299.86" y="44.41" width="308.81" height="412.85" maskUnits="userSpaceOnUse">
      <rect x="319.23" y="85.36" width="247.93" height="247.93" fill="#fff"></rect>
    </mask>
    <radialGradient id="e" cx="477.73" cy="594.97" r="3.28" gradientTransform="matrix(0, 44.53, 44.53, 0, -26053.34, -21084.44)" gradientUnits="userSpaceOnUse">
      <stop offset="0" stop-color="#fff"></stop>
      <stop offset="0.72" stop-color="#fff" stop-opacity="0.7"></stop>
      <stop offset="1" stop-color="#fff" stop-opacity="0.35"></stop>
    </radialGradient>
  </defs>
  <title>crm_org_daylite_logo-01</title>
  <path d="M567.16,162.58q0-4.43,0-8.83c0-2.48,0-5-.11-7.44a108.57,108.57,0,0,0-1.43-16.19,54.46,54.46,0,0,0-5.07-15.39A51.84,51.84,0,0,0,537.9,92.11,54.86,54.86,0,0,0,522.5,87a108.56,108.56,0,0,0-16.19-1.42c-2.48-.07-5-.09-7.44-.11-2.95,0-5.89,0-8.84,0l-34.19-.12H430.26l-33.59.12c-2.95,0-5.9,0-8.85,0-2.49,0-5,0-7.46.11A109.22,109.22,0,0,0,364.13,87a54.55,54.55,0,0,0-15.42,5.07A51.79,51.79,0,0,0,326,114.73a54.5,54.5,0,0,0-5.09,15.39,108.57,108.57,0,0,0-1.43,16.19c-.06,2.48-.09,5-.11,7.44,0,2.94-.17,6.6-.17,9.54v59l.16,33.83q0,4.43,0,8.84c0,2.49.05,5,.11,7.45a109,109,0,0,0,1.43,16.22A54.86,54.86,0,0,0,326,304a51.84,51.84,0,0,0,22.69,22.66,54.85,54.85,0,0,0,15.43,5.08,107.64,107.64,0,0,0,16.22,1.42c2.49.07,5,.1,7.46.11,2.95,0,5.9,0,8.85,0H490c3,0,5.89,0,8.84,0,2.48,0,5,0,7.44-.11a107.49,107.49,0,0,0,16.2-1.42,54.8,54.8,0,0,0,15.39-5.08A51.79,51.79,0,0,0,560.54,304a54.48,54.48,0,0,0,5.07-15.41A108.84,108.84,0,0,0,567,272.38c.06-2.48.09-5,.11-7.45q0-4.41,0-8.84V162.58" fill="#fff" fill-rule="evenodd"></path>
  <g mask="url(#a)">
    <path d="M567.16,162.58q0-4.43,0-8.83c0-2.48,0-5-.11-7.44a108.57,108.57,0,0,0-1.43-16.19,54.46,54.46,0,0,0-5.07-15.39A51.84,51.84,0,0,0,537.9,92.11,54.86,54.86,0,0,0,522.5,87a108.56,108.56,0,0,0-16.19-1.42c-2.48-.07-5-.09-7.44-.11-2.95,0-5.89,0-8.84,0l-34.19-.12H430.26l-33.59.12c-2.95,0-5.9,0-8.85,0-2.49,0-5,0-7.46.11A109.22,109.22,0,0,0,364.13,87a54.55,54.55,0,0,0-15.42,5.07A51.79,51.79,0,0,0,326,114.73a54.5,54.5,0,0,0-5.09,15.39,108.57,108.57,0,0,0-1.43,16.19c-.06,2.48-.09,5-.11,7.44,0,2.94-.17,6.6-.17,9.54v59l.16,33.83q0,4.43,0,8.84c0,2.49.05,5,.11,7.45a109,109,0,0,0,1.43,16.22A54.86,54.86,0,0,0,326,304a51.84,51.84,0,0,0,22.69,22.66,54.85,54.85,0,0,0,15.43,5.08,107.64,107.64,0,0,0,16.22,1.42c2.49.07,5,.1,7.46.11,2.95,0,5.9,0,8.85,0H490c3,0,5.89,0,8.84,0,2.48,0,5,0,7.44-.11a107.49,107.49,0,0,0,16.2-1.42,54.8,54.8,0,0,0,15.39-5.08A51.79,51.79,0,0,0,560.54,304a54.48,54.48,0,0,0,5.07-15.41A108.84,108.84,0,0,0,567,272.38c.06-2.48.09-5,.11-7.45q0-4.41,0-8.84V162.58" fill="none"></path>
    <rect x="319.23" y="85.36" width="247.93" height="247.93" fill="url(#b)"></rect>
    <g mask="url(#c)">
      <g opacity="0.75">
        <path d="M601.77,50.76V367.89H284.63V50.76ZM455.84,85.36H430.26l-33.59.12c-2.95,0-5.9,0-8.85,0-2.49,0-5,0-7.46.11A109.22,109.22,0,0,0,364.13,87a54.55,54.55,0,0,0-15.42,5.07A51.79,51.79,0,0,0,326,114.73a54.5,54.5,0,0,0-5.09,15.39,108.57,108.57,0,0,0-1.43,16.19c-.06,2.48-.09,5-.11,7.44,0,2.94-.17,6.6-.17,9.54v59l.16,33.83q0,4.43,0,8.84c0,2.49.05,5,.11,7.45a109,109,0,0,0,1.43,16.22A54.86,54.86,0,0,0,326,304a51.84,51.84,0,0,0,22.69,22.66,54.85,54.85,0,0,0,15.43,5.08,107.64,107.64,0,0,0,16.22,1.42c2.49.07,5,.1,7.46.11l4.42,0H490c3,0,5.89,0,8.84,0,2.48,0,5,0,7.44-.11a107.49,107.49,0,0,0,16.2-1.42,54.8,54.8,0,0,0,15.39-5.08A51.79,51.79,0,0,0,560.54,304a54.48,54.48,0,0,0,5.07-15.41A108.84,108.84,0,0,0,567,272.38c.06-2.48.09-5,.11-7.45v-4.42h0V162.58q0-4.43,0-8.83c0-2.48,0-5-.11-7.44a108.57,108.57,0,0,0-1.43-16.19,54.46,54.46,0,0,0-5.07-15.39A51.84,51.84,0,0,0,537.9,92.11,54.86,54.86,0,0,0,522.5,87a108.56,108.56,0,0,0-16.19-1.42c-2.48-.07-5-.09-7.44-.11-2.95,0-5.89,0-8.84,0Z" fill-rule="evenodd"></path>
        <path d="M601.77,50.76V367.89H284.63V50.76ZM455.84,85.36H430.26l-33.59.12c-2.95,0-5.9,0-8.85,0-2.49,0-5,0-7.46.11A109.22,109.22,0,0,0,364.13,87a54.55,54.55,0,0,0-15.42,5.07A51.79,51.79,0,0,0,326,114.73a54.5,54.5,0,0,0-5.09,15.39,108.57,108.57,0,0,0-1.43,16.19c-.06,2.48-.09,5-.11,7.44,0,2.94-.17,6.6-.17,9.54v59l.16,33.83q0,4.43,0,8.84c0,2.49.05,5,.11,7.45a109,109,0,0,0,1.43,16.22A54.86,54.86,0,0,0,326,304a51.84,51.84,0,0,0,22.69,22.66,54.85,54.85,0,0,0,15.43,5.08,107.64,107.64,0,0,0,16.22,1.42c2.49.07,5,.1,7.46.11l4.42,0H490c3,0,5.89,0,8.84,0,2.48,0,5,0,7.44-.11a107.49,107.49,0,0,0,16.2-1.42,54.8,54.8,0,0,0,15.39-5.08A51.79,51.79,0,0,0,560.54,304a54.48,54.48,0,0,0,5.07-15.41A108.84,108.84,0,0,0,567,272.38c.06-2.48.09-5,.11-7.45v-4.42h0V162.58q0-4.43,0-8.83c0-2.48,0-5-.11-7.44a108.57,108.57,0,0,0-1.43-16.19,54.46,54.46,0,0,0-5.07-15.39A51.84,51.84,0,0,0,537.9,92.11,54.86,54.86,0,0,0,522.5,87a108.56,108.56,0,0,0-16.19-1.42c-2.48-.07-5-.09-7.44-.11-2.95,0-5.89,0-8.84,0Z" fill="#fff" fill-opacity="0.55" fill-rule="evenodd"></path>
      </g>
    </g>
    <g mask="url(#d)">
      <path d="M454.86,348.52,325,457.26l-18.4-106,131.06-35.46c-.79-2.83-1.44-5.74-2-8.7a89.2,89.2,0,0,1-.46-27.64l-135.4-21.83L302.31,164l143.34,84.6A87.6,87.6,0,0,1,471,220.15L368.56,72.42l97,3.59L499,207c2.18-.57,4.41-1.06,6.67-1.47A84.68,84.68,0,0,1,542.34,207L584.47,44.41l24.2,139.5-32.84,40.55a87.62,87.62,0,0,1,29.74,52.15c8.27,47.68-23.05,93.14-70,101.55-2.86.51-5.72.88-8.56,1.1V352c1.3-.14,2.61-.33,3.92-.57,32.38-5.8,54-37.19,48.29-70.1s-36.58-54.89-69-49.08-54,37.19-48.28,70.1c5,28.69,29.07,49.06,56.61,50v27.16A85.77,85.77,0,0,1,454.86,348.52Z" fill-rule="evenodd" fill="url(#e)"></path>
      <path d="M454.86,348.52,325,457.26l-18.4-106,131.06-35.46c-.79-2.83-1.44-5.74-2-8.7a89.2,89.2,0,0,1-.46-27.64l-135.4-21.83L302.31,164l143.34,84.6A87.6,87.6,0,0,1,471,220.15L368.56,72.42l97,3.59L499,207c2.18-.57,4.41-1.06,6.67-1.47A84.68,84.68,0,0,1,542.34,207L584.47,44.41l24.2,139.5-32.84,40.55a87.62,87.62,0,0,1,29.74,52.15c8.27,47.68-23.05,93.14-70,101.55-2.86.51-5.72.88-8.56,1.1V352c1.3-.14,2.61-.33,3.92-.57,32.38-5.8,54-37.19,48.29-70.1s-36.58-54.89-69-49.08-54,37.19-48.28,70.1c5,28.69,29.07,49.06,56.61,50v27.16A85.77,85.77,0,0,1,454.86,348.52Z" fill="#fff" fill-opacity="0.1" fill-rule="evenodd"></path>
    </g>
  </g>
  <path d="M710.51,278.68c40.68,0,64.57-25.32,64.57-68.46V210c0-42.95-24.08-68.17-64.57-68.17h-46V278.68Zm-1.13-15.36H681.59V157.22h27.79c31,0,48.26,18.87,48.26,53v.19C757.64,244.35,740.38,263.32,709.38,263.32Zm115.73,17.25c13.18,0,25-7.11,30.81-17.92h.38v16h16.5V210.5c0-19.72-14.6-32.33-37.92-32.33s-37.36,13.09-38.78,29.3l-.1,1h15.93l.19-.85c1.9-8.82,9.86-14.89,22.57-14.89,13.74,0,21.61,7.31,21.61,19.35v8.25L828.05,222c-22.66,1.32-35.75,11.85-35.75,28.63v.19C792.3,268.72,805.48,280.57,825.11,280.57Zm3.7-14.31c-11.85,0-19.63-6-19.63-15.46v-.19c0-9.2,7.59-15.07,20.77-15.83l26.35-1.61v8.06C856.3,255.54,844.36,266.26,828.81,266.26Zm77,45.6c17.83,0,26.46-8.15,33.47-27l38.5-104.77H960.38l-27.31,82.11h-.38l-27.21-82.11H887.84l36.6,98.7-2,5.6c-4,11.18-9.77,13.84-20.2,13.84a27.23,27.23,0,0,1-5.31-.57V311.1A54.55,54.55,0,0,0,905.76,311.86Zm104.83-33.18V141.86H994.1V278.68Zm34.1-115.3a10.34,10.34,0,1,0-10.33-10.33A10.29,10.29,0,0,0,1044.69,163.38Zm8.25,115.3V180.07h-16.5v98.61Zm57,1.89a70.85,70.85,0,0,0,8.82-.66V266.54c-1.42.1-3.32.38-5.31.38-8.82,0-13.46-2.94-13.46-13.46V193.72h18.77V180.07H1100V153.43H1083v26.64h-14.41v13.65H1083v59.83C1083,272.42,1091.87,280.57,1110,280.57Zm66.72,0c21.52,0,37.64-12.89,40.86-29.2l.19-1h-16.21l-.28.86c-2.85,8.43-11.67,14.69-24.18,14.69-17.54,0-28.73-11.85-29.11-32.14h71v-6.07c0-29.58-16.41-49.59-43.33-49.59s-44.38,21-44.38,51.49v.09C1131.28,260.76,1148.35,280.57,1176.7,280.57Zm25.5-59.64h-54c1.81-18.39,13-28.16,27.31-28.16S1200.59,201.78,1202.2,220.93Z" fill-opacity="0.8"></path>
</svg>
