<?xml version="1.0" encoding="UTF-8"?>
<svg xmlns:dc="http://purl.org/dc/elements/1.1/" xmlns:cc="http://creativecommons.org/ns#" xmlns:rdf="http://www.w3.org/1999/02/22-rdf-syntax-ns#" xmlns:svg="http://www.w3.org/2000/svg" xmlns="http://www.w3.org/2000/svg" id="svg18" version="1.1" viewBox="256.01 308.79 512.01 150.43">
  <metadata id="metadata24"></metadata>
  <defs id="defs22"></defs>
  <g id="g5">
    <title id="title2">background</title>
    <path id="canvas_background" d="M -1,-1 H 581 V 401 H -1 Z" style="fill:none"></path>
  </g>
  <g id="g16">
    <title id="title7">Layer 1</title>
    <g style="fill:#f9f9f9;stroke-width:0;stroke-miterlimit:2" id="logo-group" stroke-miterlimit="2" transform="matrix(1.2496001,0,0,1.2496001,-127.79,-95.838997)">
      <path style="fill:#ee6055" id="path310692" d="m 352.76,342.24 v -18.43 c -19.332,0 -35.056,15.724 -35.056,35.056 h -10.568 v 17.013 h 10.568 v 43.82 h 18.43 v -43.82 h 16.626 v -17.013 h -16.626 c 0,-9.1507 7.4752,-16.626 16.626,-16.626 z"></path>
      <path style="fill:#ee6055" id="path310694" d="m 366.56,419.7 h 18.43 v -95.76 h -18.43 z"></path>
      <path style="fill:#ee6055" id="path310696" d="m 420.15,391.35 h 52.842 c 0.51554,-2.191 0.7733,-4.5109 0.7733,-6.9597 0,-2.191 -0.25776,-4.382 -0.64442,-6.4441 -3.0932,-17.141 -18.172,-30.287 -36.087,-30.287 -20.235,0 -36.732,16.497 -36.732,36.732 0,20.235 16.497,36.732 36.732,36.732 15.853,0 29.514,-10.182 34.541,-24.359 h -21.137 c -3.351,3.6087 -8.1196,5.9286 -13.404,5.9286 -7.6041,0 -14.177,-4.6398 -16.884,-11.342 z m 33.896,-13.404 h -34.154 c 2.5777,-6.9597 9.2796,-11.857 17.141,-11.857 7.733,0 14.435,4.8976 17.013,11.857 z"></path>
      <path style="fill:#ee6055" id="path310698" d="m 505.43,391.35 h 52.842 c 0.51554,-2.191 0.7733,-4.5109 0.7733,-6.9597 0,-2.191 -0.25776,-4.382 -0.64442,-6.4441 -3.0932,-17.141 -18.172,-30.287 -36.087,-30.287 -20.235,0 -36.732,16.497 -36.732,36.732 0,20.235 16.497,36.732 36.732,36.732 15.853,0 29.514,-10.182 34.541,-24.359 h -21.137 c -3.351,3.6087 -8.1196,5.9286 -13.404,5.9286 -7.6041,0 -14.177,-4.6398 -16.884,-11.342 z m 33.896,-13.404 h -34.154 c 2.5777,-6.9597 9.2796,-11.857 17.141,-11.857 7.733,0 14.435,4.8976 17.013,11.857 z"></path>
      <path style="fill:#ee6055" id="path310700" d="m 609.41,347.66 c -20.364,0 -36.732,16.497 -36.732,36.732 v 59.802 h 18.43 v -27.968 c 5.2842,3.0932 11.599,4.8976 18.301,4.8976 20.235,0 36.603,-16.497 36.603,-36.732 0,-20.235 -16.368,-36.732 -36.603,-36.732 z m 0,55.033 c -10.182,0 -18.301,-8.2485 -18.301,-18.301 0,-10.053 8.1196,-18.301 18.301,-18.301 10.053,0 18.172,8.2485 18.172,18.301 0,10.053 -8.1196,18.301 -18.172,18.301 z"></path>
      <path style="fill:#ee6055" id="path310702" d="m 690.71,373.95 c -8.3774,-2.4488 -12.502,-3.9954 -12.502,-6.1864 0,-2.5777 4.8976,-3.8665 8.2485,-3.8665 10.826,0 10.826,4.2531 10.826,5.7997 h 18.43 c 0,-14.95 -11.213,-24.101 -29.256,-24.101 -15.466,0 -26.679,9.2796 -26.679,22.168 0,16.368 15.595,20.879 25.777,23.843 8.8929,2.5777 12.888,4.1243 12.888,6.7019 0,2.5777 -2.4488,6.9597 -11.599,6.9597 -1.0311,0 -9.924,-0.12888 -9.924,-6.7019 h -18.43 c 0,14.564 11.986,25.132 28.354,25.132 19.719,0 30.03,-12.759 30.03,-25.39 0,-16.755 -15.724,-21.266 -26.163,-24.359 z"></path>
    </g>
  </g>
</svg>
