<?xml version="1.0" encoding="UTF-8"?>
<svg xmlns="http://www.w3.org/2000/svg" width="321" height="88" viewBox="0 0 321 88" fill="none">
  <path d="M42.16 73.34H30.64C30.2183 73.34 29.8139 73.1725 29.5157 72.8743C29.2175 72.5761 29.05 72.1717 29.05 71.75V50.42C29.05 46.42 28.6333 43.7533 27.8 42.42C27.2363 41.4903 26.4305 40.7312 25.4688 40.224C24.5071 39.7167 23.4256 39.4803 22.34 39.54C21.2848 39.5146 20.2369 39.7218 19.2708 40.147C18.3047 40.5721 17.4441 41.2048 16.75 42C15.3833 43.52 14.7 45.8533 14.7 49V84.82C14.7 85.2417 14.5325 85.6461 14.2343 85.9443C13.9361 86.2425 13.5317 86.41 13.11 86.41H1.59C1.16831 86.41 0.763883 86.2425 0.4657 85.9443C0.167517 85.6461 0 85.2417 0 84.82V1.59C0 1.16831 0.167517 0.763883 0.4657 0.4657C0.763883 0.167517 1.16831 0 1.59 0L13.11 0C13.5317 0 13.9361 0.167517 14.2343 0.4657C14.5325 0.763883 14.7 1.16831 14.7 1.59V29.59C14.7016 29.902 14.7951 30.2067 14.9687 30.466C15.1422 30.7253 15.3883 30.9279 15.6761 31.0483C15.964 31.1688 16.2809 31.2019 16.5875 31.1435C16.894 31.0851 17.1766 30.9378 17.4 30.72C18.0135 30.1382 18.6835 29.619 19.4 29.17C22.0329 27.6269 25.0501 26.864 28.1 26.97C32.1214 26.8308 36.0364 28.2782 39 31C42.18 33.9867 43.77 38.4767 43.77 44.47V71.75C43.77 71.9605 43.7282 72.1689 43.6471 72.3631C43.5659 72.5573 43.447 72.7335 43.2973 72.8814C43.1475 73.0293 42.9698 73.146 42.7746 73.2248C42.5794 73.3035 42.3705 73.3426 42.16 73.34Z" fill="black"></path>
  <path d="M102 50.68C102.137 56.5815 100.118 62.3306 96.32 66.85C91.7533 72.2833 85.3433 75.0167 77.09 75.05C68.8366 75.0833 62.4 72.35 57.78 66.85C53.9449 62.1999 51.9299 56.3148 52.11 50.29C52.0583 44.5467 54.0905 38.9794 57.83 34.62C62.45 29.12 69.02 26.37 77.54 26.37C85.3666 26.37 91.6233 29.12 96.31 34.62C100.107 39.0973 102.131 44.8109 102 50.68ZM86.71 50.68C86.7758 47.9153 85.7647 45.2331 83.89 43.2C83.0377 42.2298 81.9866 41.4544 80.8081 40.9264C79.6296 40.3984 78.3513 40.1302 77.06 40.14C75.6191 40.1139 74.1937 40.44 72.9075 41.0901C71.6214 41.7401 70.5135 42.6944 69.68 43.87C68.1749 45.8326 67.3592 48.2368 67.3592 50.71C67.3592 53.1832 68.1749 55.5874 69.68 57.55C71.57 60.04 74.02 50.37 77.04 50.37C80.7 50.37 82.04 60.26 83.91 58.21C85.7941 56.1619 86.8088 53.462 86.74 50.68H86.71Z" fill="black"></path>
  <path d="M141.49 40.37C141.489 40.6209 141.428 40.8679 141.312 41.0908C141.197 41.3137 141.031 41.5061 140.827 41.6524C140.623 41.7987 140.388 41.8947 140.14 41.9325C139.892 41.9703 139.638 41.9489 139.4 41.87C138.066 41.405 136.663 41.1651 135.25 41.16C130.437 41.16 127.317 43.3267 125.89 47.66C125.287 49.7035 125.017 51.8307 125.09 53.96V71.75C125.09 72.1717 124.922 72.5761 124.624 72.8743C124.326 73.1725 123.922 73.34 123.5 73.34H112C111.578 73.34 111.174 73.1725 110.876 72.8743C110.578 72.5761 110.41 72.1717 110.41 71.75V29.62C110.406 29.4087 110.444 29.1987 110.522 29.0023C110.6 28.8059 110.717 28.6271 110.865 28.4763C111.013 28.3254 111.19 28.2056 111.385 28.1238C111.579 28.0421 111.789 28 112 28H123.5C123.922 28 124.326 28.1675 124.624 28.4657C124.922 28.7639 125.09 29.1683 125.09 29.59V30.59C125.088 30.9097 125.184 31.2224 125.364 31.4868C125.543 31.7511 125.799 31.9547 126.097 32.0707C126.395 32.1866 126.721 32.2094 127.032 32.1361C127.344 32.0628 127.625 31.8968 127.84 31.66C128.504 30.9293 129.256 30.2844 130.08 29.74C132.639 28.1291 135.617 27.3114 138.64 27.39C139.04 27.39 139.49 27.39 139.99 27.39C140.395 27.4154 140.775 27.5937 141.054 27.8889C141.332 28.1841 141.488 28.5742 141.49 28.98V40.37Z" fill="black"></path>
  <path d="M163.57 10.62C163.633 12.9824 162.776 15.2769 161.18 17.02C160.446 17.8438 159.547 18.5031 158.54 18.9545C157.534 19.406 156.443 19.6393 155.34 19.6393C154.237 19.6393 153.146 19.406 152.14 18.9545C151.133 18.5031 150.234 17.8438 149.5 17.02C147.915 15.2787 147.063 12.9937 147.12 10.64C147.055 8.29397 147.909 6.01538 149.5 4.28999C150.234 3.46948 151.132 2.81304 152.137 2.36361C153.141 1.91417 154.229 1.68185 155.33 1.68185C156.431 1.68185 157.519 1.91417 158.523 2.36361C159.528 2.81304 160.427 3.46948 161.16 4.28999C162.757 6.00567 163.622 8.27667 163.57 10.62ZM161.08 73.34H149.56C149.144 73.3321 148.747 73.1612 148.455 72.8638C148.163 72.5665 148 72.1665 148 71.75V29.62C147.996 29.4112 148.033 29.2036 148.11 29.0092C148.186 28.8148 148.3 28.6373 148.444 28.4868C148.589 28.3364 148.762 28.216 148.954 28.1324C149.145 28.0489 149.351 28.0039 149.56 28H161.08C161.289 28 161.496 28.0411 161.688 28.121C161.881 28.2009 162.057 28.318 162.204 28.4657C162.352 28.6133 162.469 28.7886 162.549 28.9815C162.629 29.1744 162.67 29.3812 162.67 29.59V71.75C162.67 71.9588 162.629 72.1656 162.549 72.3585C162.469 72.5514 162.352 72.7266 162.204 72.8743C162.057 73.0219 161.881 73.1391 161.688 73.219C161.496 73.2989 161.289 73.34 161.08 73.34Z" fill="black"></path>
  <path d="M212.07 30.44L195.54 57.79C195.396 58.0318 195.318 58.3075 195.314 58.5891C195.31 58.8708 195.381 59.1484 195.519 59.3939C195.657 59.6395 195.857 59.8442 196.1 59.9875C196.342 60.1308 196.618 60.2076 196.9 60.21H210C210.42 60.21 210.823 60.3761 211.121 60.6722C211.419 60.9682 211.587 61.37 211.59 61.79V71.79C211.58 72.2047 211.407 72.5989 211.11 72.8885C210.813 73.1781 210.415 73.3401 210 73.34H172.34C172.06 73.3361 171.787 73.2585 171.547 73.115C171.306 72.9715 171.108 72.7673 170.973 72.5228C170.837 72.2784 170.768 72.0024 170.772 71.7227C170.777 71.4431 170.856 71.1696 171 70.93L187.63 43.58C187.777 43.3394 187.858 43.0641 187.864 42.7821C187.869 42.5001 187.8 42.2217 187.662 41.9754C187.525 41.7291 187.325 41.5238 187.082 41.3805C186.839 41.2372 186.562 41.1611 186.28 41.16H173.73C173.31 41.1574 172.908 40.9887 172.612 40.6908C172.316 40.3929 172.15 39.99 172.15 39.57V29.62C172.146 29.4095 172.184 29.2004 172.261 29.0046C172.339 28.8089 172.454 28.6305 172.601 28.4798C172.748 28.3291 172.924 28.2091 173.118 28.1267C173.311 28.0444 173.519 28.0013 173.73 28H210.73C211.014 28.0007 211.293 28.0775 211.538 28.2225C211.782 28.3676 211.983 28.5755 212.12 28.8246C212.257 29.0738 212.324 29.355 212.316 29.6391C212.307 29.9232 212.222 30.1998 212.07 30.44Z" fill="black"></path>
  <path d="M268.63 50.68C268.777 56.5745 266.776 62.3216 263 66.85C258.413 72.31 251.99 75.0433 243.73 75.05C235.47 75.0567 229.037 72.3233 224.43 66.85C220.587 62.2036 218.568 56.3168 218.75 50.29C218.698 44.5467 220.731 38.9794 224.47 34.62C229.09 29.12 235.66 26.37 244.18 26.37C252.02 26.37 258.277 29.12 262.95 34.62C266.743 39.0987 268.764 44.8122 268.63 50.68ZM253.35 50.68C253.416 47.9133 252.401 45.2299 250.52 43.2C249.612 42.1832 248.489 41.3818 247.232 40.8543C245.976 40.3267 244.617 40.0862 243.255 40.1504C241.894 40.2146 240.564 40.5819 239.362 41.2253C238.161 41.8688 237.118 42.7723 236.31 43.87C234.811 45.8353 234 48.2384 234 50.71C234 53.1815 234.811 55.5847 236.31 57.55C237.12 58.6489 238.165 59.5533 239.368 60.197C240.572 60.8407 241.904 61.2076 243.268 61.2708C244.631 61.3341 245.992 61.0921 247.25 60.5626C248.508 60.033 249.632 59.2293 250.54 58.21C252.417 56.1588 253.424 53.4593 253.35 50.68Z" fill="black"></path>
  <path d="M319.15 87.2H307.63C307.418 87.2053 307.207 87.1682 307.009 87.0906C306.812 87.0131 306.632 86.8969 306.48 86.7487C306.328 86.6005 306.207 86.4234 306.125 86.2278C306.042 86.0323 306 85.8222 306 85.61V50.42C306 46.42 305.583 43.7733 304.75 42.48C304.186 41.5503 303.38 40.7912 302.419 40.284C301.457 39.7767 300.376 39.5403 299.29 39.6C298.233 39.5831 297.184 39.7961 296.217 40.2243C295.25 40.6525 294.388 41.2857 293.69 42.08C292.357 43.5667 291.69 45.9 291.69 49.08V71.75C291.69 72.1717 291.522 72.5761 291.224 72.8743C290.926 73.1725 290.522 73.34 290.1 73.34H278.58C278.16 73.3374 277.758 73.1687 277.462 72.8708C277.166 72.5729 277 72.17 277 71.75V29.62C276.996 29.4095 277.034 29.2004 277.111 29.0046C277.189 28.8089 277.304 28.6305 277.451 28.4798C277.598 28.3291 277.774 28.2091 277.968 28.1267C278.161 28.0444 278.369 28.0013 278.58 28H290.1C290.522 28 290.926 28.1675 291.224 28.4657C291.522 28.7639 291.69 29.1683 291.69 29.59C291.692 29.902 291.785 30.2067 291.959 30.466C292.132 30.7253 292.378 30.9279 292.666 31.0483C292.954 31.1688 293.271 31.2019 293.577 31.1435C293.884 31.0851 294.167 30.9378 294.39 30.72C295.004 30.1382 295.674 29.619 296.39 29.17C299.032 27.655 302.046 26.9103 305.09 27.02C309.11 26.8536 313.032 28.2845 316 31C319.18 33.9867 320.77 38.4767 320.77 44.47V85.61C320.77 85.8213 320.728 86.0306 320.646 86.2255C320.564 86.4204 320.445 86.597 320.294 86.745C320.143 86.8931 319.964 87.0096 319.768 87.0877C319.571 87.1658 319.361 87.204 319.15 87.2Z" fill="black"></path>
</svg>
