<?xml version="1.0" encoding="UTF-8"?>
<svg xmlns="http://www.w3.org/2000/svg" id="Layer_1" data-name="Layer 1" viewBox="0 0 1880 835.56">
  <defs>
    <style>.cls-1{fill:#81bb41}</style>
  </defs>
  <g id="KEMBA">
    <path d="M729.93 761.44q-16.39 0-25.88 10.92t-9.49 29.89q0 19.51 9.15 30.17t26.08 10.64a88.83 88.83 0 0023.74-3.74v10.14q-10.34 3.87-25.51 3.87-22 0-33.91-13.33t-11.93-37.89q0-15.36 5.75-26.93a41.24 41.24 0 0116.59-17.82q10.85-6.27 25.54-6.26 15.65 0 27.35 5.71l-4.9 9.93a52.79 52.79 0 00-22.58-5.3zm81.24 49.18V852h-11.56v-99.47h27.27q18.3 0 27 7t8.74 21.09q0 19.73-20 26.66l27 44.69H856l-24.08-41.35zm0-9.93H827q12.24 0 18-4.87t5.71-14.59q0-9.86-5.81-14.21t-18.68-4.36h-15zM966.51 852h-55.43v-99.47h55.43v10.27h-43.87v32h41.22V805h-41.22v36.59h43.87zm124.21-50.7q0 24.62-13.36 37.65t-38.47 13h-27.55v-99.42h30.47q23.2 0 36.06 12.85t12.85 35.92zm-12.24.41q0-19.46-9.76-29.32t-29-9.86h-16.82V842h14.1q20.67 0 31.08-10.16t10.4-30.13zm58.84 50.29v-99.47h11.56V852zm95.51 0h-11.56v-89.2h-31.5v-10.27h74.55v10.27h-31.49zm213.46-99.47v64.34q0 17-10.27 26.74t-28.23 9.72q-18 0-27.78-9.79t-9.83-26.94v-64.07h11.56v64.89q0 12.45 6.8 19.11t20 6.67q12.59 0 19.39-6.7t6.8-19.22v-64.75zM1574.51 852h-13.2L1507 768.51h-.54q1.08 14.7 1.09 26.94V852h-10.68v-99.47h13.06l54.21 83.12h.54q-.14-1.85-.61-11.8t-.34-14.25v-57.07h10.82zm51.22 0v-99.47h11.56V852zm149.91-49.89q0 23.88-12.07 37.55T1730 853.33q-22 0-33.91-13.43t-11.94-37.9q0-24.29 12-37.65t34-13.37q21.42 0 33.46 13.61t12.03 37.52zm-79.24 0q0 20.21 8.6 30.65t25 10.44q16.53 0 25-10.41t8.44-30.68q0-20.05-8.4-30.43t-24.86-10.38q-16.53 0-25.14 10.44t-8.64 30.37zM1900 852h-13.2l-54.34-83.46h-.55q1.1 14.7 1.09 26.94V852h-10.68v-99.47h13.06l54.21 83.12h.55q-.14-1.85-.62-11.8t-.34-14.25v-57.07H1900zM714.78 706.85h-32.6V550.6h89.56v27.15h-57V618h53v27h-53zm91.55 0V550.6h33.14v156.25zm216.75 0H981l-68-118.2h-1q2 31.3 2 44.67v73.53h-29.6V550.6h41.78l67.87 117h.75q-1.61-30.46-1.6-43.07v-74h29.81zm144.47 0l-11.33-37.19h-57l-11.33 37.19h-35.69L1107.37 550h40.51l55.36 156.89zm-19.24-65q-15.7-50.55-17.69-57.18c-1.32-4.41-2.26-7.91-2.83-10.47q-3.52 13.68-20.2 67.65zm222.69 65h-42.1l-68-118.2h-1q2 31.3 2 44.67v73.53h-29.6V550.6h41.79l67.86 117h.75q-1.61-30.46-1.6-43.07v-74h29.9zm111.66-130.92q-18.71 0-29 14.05t-10.26 39.17q0 52.27 39.23 52.27 16.46 0 39.86-8.23V701q-19.23 8-43 8-34.1 0-52.16-20.68t-18.06-59.37q0-24.37 8.87-42.7a64.21 64.21 0 0125.49-28.11q16.62-9.76 39-9.77 22.77 0 45.74 11l-10.68 26.94a178.74 178.74 0 00-17.64-7.27 52.49 52.49 0 00-17.39-3.11zm78.42 130.92V550.6h33.13v156.25zm177.57 0l-11.33-37.19h-57L1659 706.85h-35.7L1678.48 550H1719l55.36 156.89zm-19.24-65q-15.71-50.55-17.68-57.18c-1.32-4.41-2.27-7.91-2.84-10.47q-3.53 13.68-20.19 67.65zm84.08 65V550.6h33.13v128.89H1900v27.36zM653.43 502.4h-67l-111-160.14-34.11 27.82V502.4h-57.85V148.74h57.81v168.85q23.72-29 47.17-55.88l95.55-113h65.8Q557.15 257.6 517 303.8zm228.8 0H682.18V148.74h200.05v48.86H740v96.28h133.28v48.38H740v111h142.23zm188.87 0L968.54 207h-1.94q4.11 65.79 4.11 123.37v172h-52.49V148.74h81.52L1098 430.07h1.46l101.11-281.33h81.76V502.4h-55.63V327.51q0-26.37 1.33-68.7t2.29-51.29h-1.93L1122.15 502.4zm252.37-353.66h105q73 0 105.59 21.29t32.54 67.25q0 31-16 51.52t-46 25.88v2.42q37.26 7 54.79 27.7t17.54 56q0 47.65-33.26 74.63t-92.53 27h-127.67zm57.81 146.11h55.64q36.28 0 53-11.49t16.7-39.07q0-24.91-18-36t-57.22-11.13h-50.07zm0 46.93v112h61.44q36.29 0 54.79-13.91T1516 396q0-27.57-18.87-40.88t-57.33-13.3zm457.28 160.62l-35.32-98.21H1668l-34.6 98.21h-61l132.32-355.11h62.89L1900 502.4zm-50.56-148l-33.14-96.28q-3.63-9.67-10-30.48t-8.86-30.52a540.1 540.1 0 01-19.11 65.07L1685 354.36z" transform="translate(-20 -17.78)"></path>
    <path class="cls-1" d="M496.65 678.3C423 822.2 135.32 802.85 51.33 642.36c134.52 102.53 301.45 64.45 445.32 35.94zm131.22 9.81c-62.21 66.78-123.88 163.74-243 165.22 86.5-45.84 115.84-172.93 243-165.22z" transform="translate(-20 -17.78)"></path>
    <path class="cls-1" d="M387.07 661.55C278.4 680.8 169.44 638.09 102.4 550.33 15.3 446.27-16.19 320.14 74.73 207.87c-51.59 193.64 165.2 338.71 312.34 453.68z" transform="translate(-20 -17.78)"></path>
    <path class="cls-1" d="M306.28 527.94C56.78 398.33 192.79-7.4 456 19c-196.93 82.67-206.65 329.1-149.72 508.94z" transform="translate(-20 -17.78)"></path>
  </g>
</svg>
