<?xml version="1.0" encoding="UTF-8"?>
<svg xmlns="http://www.w3.org/2000/svg" viewBox="0 0 230 60">
  <g fill="#25a8db">
    <path d="m80.88 43.32c-8.13 0-14.04-4.76-14.04-16.27v-6.68c0-11.5 5.91-16.27 14.04-16.27s13.99 4.77 13.99 16.27v6.68c0 11.51-5.85 16.27-13.99 16.27zm9.23-22.95c0-8.7-3.52-12.02-9.22-12.02-5.65 0-9.27 3.31-9.27 12.02v6.68c0 8.7 3.57 12.02 9.27 12.02 5.65 0 9.22-3.32 9.22-12.02z"></path>
    <path d="m122.28 42.96h-2.49c-.57 0-1.04-.47-1.04-1.04v-17.04c0-5.23-1.76-6.84-5.7-6.84-2.18 0-4.61.83-6.99 2.02v21.86c0 .52-.47 1.04-1.04 1.04h-2.54c-.52 0-.98-.47-.98-1.04v-26.42c0-.57.41-1.04.98-1.04h2.59c.57 0 .98.47.98 1.04v.98c2.85-1.6 5.18-2.38 8.24-2.38 6.22 0 9.01 3.89 9.01 10.78v17.04c.02.57-.45 1.04-1.02 1.04z"></path>
    <path d="m151.35 30.16h-17.36v.73c0 6.16 2.43 8.45 7.2 8.45 3.01 0 6.84-.21 9.22-.57h.26c.42 0 .83.21.83.72v1.76c0 .67-.21 1.04-1.04 1.19-2.95.57-5.8.88-9.27.88-5.96 0-11.76-2.8-11.76-12.43v-4.66c0-7.41 4.09-12.12 11.5-12.12 7.56 0 11.4 4.77 11.4 12.12v2.8c0 .67-.36 1.13-.98 1.13zm-3.63-3.93c0-5.85-2.23-8.13-6.79-8.13-4.46 0-6.94 2.54-6.94 8.13v.47h13.73z"></path>
    <path d="m162.69 42.96h-2.69c-.52 0-.93-.47-.93-1.04v-36.94c0-.52.36-.98.93-.98h2.69c.52 0 .93.42.93.98v36.94c.01.52-.36 1.04-.93 1.04z"></path>
    <path d="m181.76 43.32c-7.62 0-11.5-5.02-11.5-12.64v-3.94c0-7.62 3.89-12.64 11.5-12.64 7.62 0 11.55 5.03 11.55 12.64v3.94c0 7.62-3.94 12.64-11.55 12.64zm6.99-16.58c0-5.28-2.12-8.65-6.99-8.65-4.82 0-6.94 3.32-6.94 8.65v3.94c0 5.28 2.07 8.65 6.94 8.65 4.82 0 6.99-3.32 6.99-8.65z"></path>
    <path d="m222.07 17.94-1.86.36c.93.99 1.76 2.54 1.76 5.34v.41c0 5.7-3.52 8.86-11.5 8.86-2.74 0-4.51-.41-6.01-1.04-.88.41-1.3.98-1.3 1.76 0 .88.41 1.35 1.61 1.66l7.72 1.97c5.08 1.3 9.95 2.75 9.95 7.62v.42c0 4.97-3.31 8.03-11.81 8.03-8.19 0-11.92-3.16-11.92-8.24v-.47c0-2.9 1.55-5.28 3.26-6.58l-.36-.16c-1.66-.73-2.38-2.43-2.38-4.04v-.05c0-1.4.67-2.9 2.12-3.73-1.61-1.5-2.38-3.37-2.38-6.01v-.41c0-4.61 2.59-9.17 11.5-9.17h11.35c.62 0 1.19.52 1.19 1.14v1.35c-.01.67-.37.87-.94.98zm-4.2 26.94c0-2.02-1.66-2.85-6.32-4.04l-5.86-1.5c-1.5 1.29-2.54 2.59-2.54 5.28v.47c0 2.9 1.71 4.71 7.46 4.71 5.91 0 7.25-1.66 7.25-4.51v-.41zm-.41-21.25c0-3.11-1.4-5.54-6.99-5.54-5.8 0-6.99 2.64-6.99 5.54v.41c0 2.28 1.04 5.28 6.99 5.28 5.59 0 6.99-2.17 6.99-5.28z"></path>
  </g>
  <path d="m39.11 22.16h-1.21c-.37 0-.75-.28-.85-.63l-1.64-3.84c-.18-.31-.12-.78.14-1.04l.82-.82c.26-.26.26-.68 0-.93l-1.96-1.97c-.26-.26-.68-.26-.94 0l-.89.89c-.26.26-.73.33-1.05.16l-3.34-1.33c-.35-.1-.64-.48-.64-.84v-1.24c0-.36-.3-.65-.66-.65h-2.78c-.37 0-.66.3-.66.65v1.24c0 .36-.28.74-.63.85l-3.87 1.66c-.31.18-.77.12-1.03-.13l-.87-.87c-.25-.26-.67-.26-.93 0l-1.97 1.97c-.26.26-.26.68 0 .93l.94.95c.26.26.33.73.16 1.05l-1.32 3.31c-.09.35-.48.63-.84.63h-1.31c-.36 0-.65.3-.65.66v2.78c0 .37.29.66.65.66h1.31c.36 0 .74.28.85.63l1.62 3.81c.19.31.12.78-.13 1.04l-.9.9c-.26.25-.26.67 0 .93l1.97 1.97c.26.26.67.26.93 0l.97-.96c.26-.26.72-.33 1.05-.15l3.38 1.35c.34.1.63.48.63.84v1.29c0 .37.3.66.66.66h2.78c.36 0 .66-.3.66-.66v-1.29c0-.36.28-.74.64-.84l3.78-1.6c.31-.18.78-.11 1.04.14l.85.86c.26.25.68.25.94 0l1.97-1.97c.25-.26.25-.67 0-.93l-.91-.91c-.25-.25-.33-.72-.15-1.05l1.37-3.41c.1-.35.48-.63.85-.64h1.21c.36 0 .66-.29.66-.66v-2.78c-.04-.37-.33-.67-.7-.67z" fill="none"></path>
  <path d="m44.59 21.45h-1.7c-.52 0-1.06-.4-1.2-.89l-2.32-5.42c-.25-.44-.17-1.1.2-1.47l1.15-1.15c.36-.36.36-.96 0-1.32l-2.77-2.78c-.36-.36-.96-.36-1.32 0l-1.25 1.25c-.36.36-1.04.46-1.48.23l-4.72-1.88c-.49-.14-.9-.67-.9-1.18v-1.75c0-.51-.42-.92-.93-.92h-3.93c-.52 0-.94.42-.94.92v1.75c0 .51-.4 1.05-.89 1.2l-5.47 2.34c-.44.26-1.09.17-1.46-.19l-1.23-1.23c-.36-.36-.95-.36-1.31 0l-2.78 2.78c-.37.37-.37.96 0 1.32l1.33 1.34c.37.37.47 1.03.23 1.48l-1.86 4.67c-.13.5-.67.89-1.18.89h-1.84c-.51 0-.92.42-.92.93v3.93c0 .52.41.93.92.93h1.85c.51 0 1.05.4 1.2.89l2.28 5.37c.26.44.17 1.1-.18 1.46l-1.28 1.27c-.36.36-.36.95 0 1.31l2.78 2.78c.36.36.96.36 1.31 0l1.37-1.36c.36-.36 1.02-.46 1.48-.22l4.77 1.9c.48.14.89.68.89 1.18v1.82c0 .52.42.93.94.93h3.93c.51 0 .93-.42.93-.93v-1.82c0-.5.4-1.04.9-1.19l5.33-2.26c.44-.25 1.1-.16 1.46.2l1.2 1.21c.36.36.96.36 1.32 0l2.78-2.78c.36-.36.36-.95 0-1.31l-1.28-1.28c-.36-.36-.46-1.02-.22-1.48l1.93-4.81c.14-.49.67-.89 1.19-.9h1.7c.51 0 .93-.42.93-.93v-3.93c-.01-.48-.43-.9-.94-.9zm-19.17 15.4c-6.83 0-12.36-5.54-12.36-12.36s5.54-12.36 12.36-12.36c6.83 0 12.37 5.54 12.37 12.36s-5.54 12.36-12.37 12.36z" fill="#25a8db"></path>
  <path d="m29.2 24.48c0 2.07-1.68 3.75-3.75 3.75s-3.75-1.68-3.75-3.75c0-2.08 1.68-3.76 3.75-3.76 2.07.01 3.75 1.68 3.75 3.76z" fill="#25a8db"></path>
</svg>
