<?xml version="1.0" encoding="UTF-8" standalone="no"?>
<!DOCTYPE svg PUBLIC "-//W3C//DTD SVG 1.1//EN" "http://www.w3.org/Graphics/SVG/1.1/DTD/svg11.dtd">
<svg width="100%" height="100%" viewBox="0 0 164 26" version="1.1" xmlns="http://www.w3.org/2000/svg" xmlns:xlink="http://www.w3.org/1999/xlink" xml:space="preserve" xmlns:serif="http://www.serif.com/" style="fill-rule:evenodd;clip-rule:evenodd;stroke-linejoin:round;stroke-miterlimit:1.41421;">
    <g transform="matrix(0.574507,0,0,0.574507,-73.1196,-370.013)">
        <g>
            <g transform="matrix(1,0,0,1,169.535,688.076)">
                <path d="M0,-17.594C-32.179,-17.594 -8.345,-0.284 -8.345,-0.284L-42.05,-18.827C-41.744,-11.532 -39.48,-6.188 -35.157,-2.74C-30.746,0.794 -26.522,1.233 -21.037,1.233L3.937,1.233C9.422,1.233 13.642,0.794 18.056,-2.74C22.133,-5.987 24.381,-10.925 24.88,-17.594L0,-17.594Z" style="fill:rgb(166,11,22);"/>
            </g>
            <g transform="matrix(1,0,0,1,160.776,662.547)">
                <path d="M0,-16.972L33.631,1.522C32.696,-12.117 25.917,-18.494 12.445,-18.494L-12.028,-18.494C-25.105,-18.494 -31.875,-12.487 -33.117,0.336L-8.342,0.336C23.834,0.336 0,-16.972 0,-16.972" style="fill:rgb(166,11,22);fill-rule:nonzero;"/>
            </g>
        </g>
        <g>
            <g transform="matrix(1,0,0,1,221.27,681.874)">
                <path d="M0,-30.679L12.562,-8.632L12.263,-30.679L18.843,-30.679L18.843,0L11.366,0L-1.837,-23.202L-1.539,0L-8.161,0L-8.161,-30.679L0,-30.679Z" style="fill-rule:nonzero;"/>
            </g>
            <g transform="matrix(1,0,0,1,250.025,669.396)">
                <path d="M0,-5.725L17.861,-5.725L17.861,-0.384L-0.042,-0.384C0,5.128 2.179,7.136 7.264,7.136L17.861,7.136L17.861,12.477L6.965,12.477C3.248,12.477 0.385,12.177 -2.606,9.785C-5.768,7.263 -7.306,3.248 -7.306,-2.307C-7.306,-13.16 -2.734,-18.202 7.136,-18.202L17.861,-18.202L17.861,-12.862L7.264,-12.862C2.607,-12.862 0.257,-10.554 0,-5.725" style="fill-rule:nonzero;"/>
            </g>
            <g transform="matrix(1,0,0,1,269.46,676.532)">
                <path d="M0,-19.955L0,-25.296L26.535,-25.296L26.535,-19.955L16.579,-19.955L16.579,5.341L9.914,5.341L9.914,-19.955L0,-19.955Z" style="fill-rule:nonzero;"/>
            </g>
            <g transform="matrix(1,0,0,1,303.642,669.055)">
                <path d="M0,-5.042L18.46,-5.042L18.46,0.257L0,0.257L0,12.818L-6.451,12.818L-6.451,-1.283L-6.451,-8.46C-6.451,-15.125 -2.991,-17.86 4.314,-17.86L18.46,-17.86L18.46,-12.391L4.956,-12.391C1.58,-12.391 -0.001,-11.195 -0.001,-8.375L0,-5.042Z" style="fill-rule:nonzero;"/>
            </g>
            <g transform="matrix(1,0,0,1,0,491.179)">
                <rect x="324.531" y="160.016" width="6.751" height="30.679"/>
            </g>
            <g transform="matrix(1,0,0,1,341.597,681.874)">
                <path d="M0,-30.679L-6.451,-30.679L-6.451,-9.402C-6.451,-2.736 -2.99,0 4.315,0L14.614,0L14.614,-5.366L4.957,-5.366C1.58,-5.366 0,-6.561 0,-9.382L0,-30.679Z" style="fill-rule:nonzero;"/>
            </g>
            <g transform="matrix(1,0,0,1,363.273,669.396)">
                <path d="M0,-5.726L17.891,-5.726L17.891,-0.385L-0.043,-0.385C0,5.128 2.183,7.136 7.275,7.136L17.891,7.136L17.891,12.477L6.977,12.477C3.253,12.477 0.385,12.177 -2.611,9.785C-5.778,7.264 -7.319,3.247 -7.319,-2.308C-7.319,-13.161 -2.739,-18.203 7.147,-18.203L17.891,-18.203L17.891,-12.862L7.275,-12.862C2.61,-12.862 0.257,-10.554 0,-5.726" style="fill-rule:nonzero;"/>
            </g>
            <g transform="matrix(1,0,0,1,395.091,676.403)">
                <path d="M0,-19.739C-3.375,-19.739 -4.955,-18.544 -4.955,-15.723C-4.955,-13.502 -3.589,-12.39 -0.897,-12.39L7.649,-12.39C14.485,-12.39 17.434,-10.126 17.434,-3.718C17.434,2.735 13.973,5.47 6.708,5.47L-10.468,5.47L-10.468,0.001L5.684,0.001C9.102,0.001 10.682,-0.811 10.682,-3.46C10.682,-6.195 9.231,-7.008 6.112,-7.008L-1.493,-7.008C-8.503,-7.008 -11.707,-9.656 -11.707,-15.808C-11.707,-22.473 -8.245,-25.209 -0.938,-25.209L15.938,-25.209L15.938,-19.739L0,-19.739Z" style="fill-rule:nonzero;"/>
            </g>
        </g>
    </g>
</svg>
