<?xml version="1.0" encoding="UTF-8"?>
<!-- Generator: Adobe Illustrator 22.0.1, SVG Export Plug-In . SVG Version: 6.00 Build 0)  -->
<svg xmlns="http://www.w3.org/2000/svg" xmlns:xlink="http://www.w3.org/1999/xlink" version="1.1" id="Layer_1" x="0px" y="0px" viewBox="0 0 365.3 114.3" xml:space="preserve">
<g>
	<g>
		<path fill="#ED7778" d="M76,23.6c-18.7,0-33.8,15.1-33.8,33.8S57.3,91.3,76,91.3s33.8-15.1,33.8-33.8S94.7,23.6,76,23.6z"></path>
	</g>
	<g>
		<g>
			<path fill="#FFFFFF" d="M67.1,43.4c-2.6-1.4-5.5-2.5-8.5-3.2c-0.6,1.3-0.9,2.6-0.9,4.1c0,2.2,0.7,4.2,1.9,5.8     C61.5,47.3,64,44.9,67.1,43.4z"></path>
			<path fill="#FFFFFF" d="M92.4,50.1c1.2-1.6,1.9-3.6,1.9-5.8c0-1.5-0.3-2.9-0.9-4.1c-3,0.6-5.9,1.7-8.5,3.2     C87.9,44.9,90.5,47.3,92.4,50.1z"></path>
		</g>
		<g>
			<path fill="#FFFFFF" d="M80.5,54.7c-0.6,0-1.1,0.5-1.1,1.1c0,0.2,0.1,0.4,0.2,0.6l0,0c0.4,0.6,1,1,1.7,1.2     c0.2-0.4,0.3-0.9,0.3-1.4c0-0.2,0-0.3,0-0.5C81.5,55.1,81.1,54.7,80.5,54.7z"></path>
			<path fill="#FFFFFF" d="M75.3,42.5c-9.9,0.4-17.6,8.8-17.6,18.7v10.3c0,1.8,1.5,3.3,3.3,3.3c1.8,0,3.3-1.5,3.3-3.3v-2.7h23.2v2.7     c0,1.8,1.5,3.3,3.3,3.3c1.8,0,3.3-1.5,3.3-3.3V60.7C94.2,50.4,85.7,42.1,75.3,42.5z M85.7,56.9c-0.6,1-1.5,1.7-2.6,2.1     c-0.7,1.4-2.2,2.4-3.9,2.4c-0.2,0-0.4,0-0.5,0c-0.6,0-1.1-0.5-1.1-1.1c0-0.6,0.5-1.1,1.1-1.1v0c0.5,0,1-0.2,1.4-0.4     c-0.6-0.3-1.2-0.7-1.6-1.3c-0.4-0.5-0.6-1-0.6-1.7c0-1.4,1.2-2.6,2.6-2.6c0.9,0,1.6,0.4,2.1,1.1c0.6,0.8,1,1.7,1,2.8     c0,0.1,0,0.2,0,0.4c0.5-0.2,0.9-0.6,1.2-1c0.2-0.3,0.5-0.3,0.8-0.2C85.8,56.2,85.9,56.6,85.7,56.9z"></path>
		</g>
	</g>
	<g>
		<g>
			<path fill="#212222" d="M128,44.6h4.5v2.2c0,1-0.1,1.9-0.1,1.9h0.1c0,0,2.2-4.6,8.5-4.6c6.8,0,11.1,5.4,11.1,13.3     c0,8.1-4.9,13.3-11.5,13.3c-5.6,0-7.8-4.2-7.8-4.2h-0.1c0,0,0.1,0.9,0.1,2.2v11.4H128V44.6z M139.9,66.4c4,0,7.3-3.3,7.3-9.1     c0-5.5-3-9.1-7.2-9.1c-3.8,0-7.3,2.7-7.3,9.1C132.7,61.9,135.2,66.4,139.9,66.4z"></path>
			<path fill="#212222" d="M170.9,44c7.6,0,13.7,5.6,13.7,13.2c0,7.7-6.1,13.3-13.7,13.3s-13.7-5.6-13.7-13.3     C157.2,49.6,163.3,44,170.9,44z M170.9,66.3c4.8,0,8.7-3.8,8.7-9.1c0-5.3-3.9-9-8.7-9c-4.8,0-8.7,3.8-8.7,9     C162.2,62.5,166.1,66.3,170.9,66.3z"></path>
			<path fill="#212222" d="M191.3,44.6h4.7V49c0,1.1-0.1,1.9-0.1,1.9h0.1c1.2-3.7,4.1-6.6,8-6.6c0.7,0,1.3,0.1,1.3,0.1v4.8     c0,0-0.7-0.1-1.4-0.1c-3.1,0-6,2.2-7.1,6c-0.5,1.5-0.6,3-0.6,4.6v10.4h-4.9V44.6z"></path>
			<path fill="#212222" d="M211,34.6h4.9v19.3h3.6l6.9-9.3h5.5l-8.4,11.2v0.1l9.4,14.1h-5.7L219.5,58h-3.7v11.9H211V34.6z"></path>
			<path fill="#212222" d="M238.3,34.6h4.9v11.6c0,1.3-0.1,2.2-0.1,2.2h0.1c0,0,2.2-4.3,8.1-4.3c6.8,0,11.1,5.4,11.1,13.3     c0,8.1-4.9,13.3-11.5,13.3c-5.7,0-8-4.4-8-4.4h-0.1c0,0,0.1,0.8,0.1,1.9v1.9h-4.6V34.6z M250.2,66.4c4,0,7.3-3.3,7.3-9.1     c0-5.5-3-9.1-7.2-9.1c-3.8,0-7.3,2.7-7.3,9.1C243,61.9,245.4,66.4,250.2,66.4z"></path>
			<path fill="#212222" d="M269,44.6h4.9v15.1c0,3.5,0.7,6.3,4.8,6.3c5.2,0,8.2-4.6,8.2-9.6V44.6h4.9v25.3H287v-3.4     c0-1.1,0.1-1.9,0.1-1.9H287c-1.1,2.5-4.4,5.8-9.3,5.8c-5.7,0-8.7-3-8.7-9.7V44.6z"></path>
			<path fill="#212222" d="M300.3,44.6h4.7V48c0,1-0.1,1.9-0.1,1.9h0.1c1-2.2,4-5.8,9.5-5.8c6,0,8.7,3.3,8.7,9.7v16.2h-4.9V54.8     c0-3.6-0.8-6.4-4.8-6.4c-3.9,0-7,2.6-8,6.2c-0.3,1-0.4,2.2-0.4,3.4v11.9h-4.9V44.6z"></path>
		</g>
	</g>
</g>
</svg>
