<?xml version="1.0" encoding="UTF-8" standalone="no"?>
<svg xmlns:dc="http://purl.org/dc/elements/1.1/" xmlns:cc="http://creativecommons.org/ns#" xmlns:rdf="http://www.w3.org/1999/02/22-rdf-syntax-ns#" xmlns:svg="http://www.w3.org/2000/svg" xmlns="http://www.w3.org/2000/svg" xmlns:sodipodi="http://sodipodi.sourceforge.net/DTD/sodipodi-0.dtd" xmlns:inkscape="http://www.inkscape.org/namespaces/inkscape" version="1.1" viewBox="0 0 1000 284.31881" xml:space="preserve" id="svg22" sodipodi:docname="qapital-logo-wordmark-2020.svg" width="1000" height="284.31882" inkscape:version="0.92.4 (5da689c313, 2019-01-14)">
  <defs id="defs26"></defs>
  <metadata id="metadata2"></metadata>
  <g transform="matrix(1.0688557,0,0,-1.0688557,-0.00106886,284.31562)" id="g20">
    <g transform="scale(0.1)" id="g18" style="fill:#100f0d">
      <path d="m 1108.6,824.38 c 94.85,0 181.79,14.84 260.84,44.5 l -420.9,468.53 h 456.47 l 251.95,-281.71 c 63.24,67.21 111.65,144.32 145.24,231.3 35.58,88.96 53.36,183.86 53.36,284.68 0,138.39 -32.6,264.92 -97.81,379.58 -65.22,114.66 -155.13,204.62 -269.75,269.85 -114.6,65.24 -241.07,97.87 -379.4,97.87 -138.33,0 -264.8,-32.63 -379.41,-97.87 -112.64,-65.23 -202.55,-155.19 -269.74,-269.85 -65.211,-114.66 -97.812,-241.19 -97.812,-379.58 0,-138.38 32.601,-264.91 97.812,-379.57 67.188,-114.66 157.1,-204.62 269.74,-269.86 114.61,-65.238 241.09,-97.871 379.41,-97.871 z m 655.07,-397.36 -154.13,172 C 1451.45,521.922 1284.47,483.37 1108.6,483.37 907.04,483.37 721.29,531.8 551.34,628.68 381.4,725.551 247.02,857.01 148.22,1023.08 49.411,1189.14 0.01,1372.01 0.01,1571.68 c 0,199.68 49.402,382.54 148.21,548.61 98.801,166.06 233.18,297.53 403.12,394.4 169.95,96.87 355.7,145.31 557.26,145.31 201.56,0 387.31,-48.44 557.26,-145.31 169.94,-96.87 304.31,-228.34 403.12,-394.4 98.8,-166.07 148.2,-348.93 148.2,-548.61 0,-150.25 -28.65,-292.59 -85.95,-427.02 -57.31,-132.45 -138.33,-248.11 -243.06,-346.95 l 331.98,-370.69 h -456.48" id="path4" inkscape:connector-curvature="0"></path>
      <path d="m 3127,812.53 c 81.02,0 155.12,19.77 222.31,59.309 67.19,39.539 120.55,92.922 160.07,160.13 39.53,69.19 59.28,145.31 59.28,228.34 0,83.03 -19.75,158.16 -59.28,225.37 -39.52,69.2 -92.88,123.56 -160.07,163.11 -67.19,39.53 -141.29,59.31 -222.31,59.31 -81.02,0 -155.11,-19.78 -222.3,-59.31 -67.19,-39.55 -120.54,-93.91 -160.07,-163.11 -39.52,-67.21 -59.28,-142.34 -59.28,-225.37 0,-83.03 19.76,-159.15 59.28,-228.34 39.53,-67.208 92.88,-120.59 160.07,-160.13 67.19,-39.54 141.28,-59.309 222.3,-59.309 z m 764.75,1171.3 V 533.73 h -323.09 v 145.31 c -65.2,-61.289 -138.33,-108.74 -219.35,-142.35 -79.04,-31.617 -163.02,-47.437 -251.94,-47.437 -136.35,0 -262.82,34.59 -379.41,103.79 -116.59,69.2 -209.47,162.12 -278.63,278.75 -67.19,118.62 -100.79,248.11 -100.79,388.47 0,138.39 33.6,265.91 100.79,382.54 69.16,118.62 162.04,212.53 278.63,281.72 116.59,69.2 243.06,103.79 379.41,103.79 88.92,0 172.9,-16.8 251.94,-50.41 81.02,-31.63 154.15,-78.09 219.35,-139.38 v 145.31 h 323.09" id="path6" inkscape:connector-curvature="0"></path>
      <path d="m 4889.6,812.53 c 81.03,0 155.13,19.77 222.32,59.309 67.18,39.539 120.54,92.922 160.06,160.13 39.52,69.19 59.28,145.31 59.28,228.34 0,83.03 -19.76,158.16 -59.28,225.37 -39.52,69.2 -92.88,123.56 -160.06,163.11 -67.19,39.53 -141.29,59.31 -222.32,59.31 -81.01,0 -155.12,-19.78 -222.31,-59.31 -67.19,-39.55 -120.53,-93.91 -160.06,-163.11 -39.52,-67.21 -59.28,-142.34 -59.28,-225.37 0,-83.03 19.76,-159.15 59.28,-228.34 39.53,-67.208 92.87,-120.59 160.06,-160.13 67.19,-39.54 141.3,-59.309 222.31,-59.309 z m 29.65,1215.8 c 136.35,0 262.82,-34.59 379.4,-103.79 116.6,-69.19 208.49,-163.1 275.68,-281.72 69.16,-116.63 103.74,-244.15 103.74,-382.54 0,-140.36 -34.58,-269.85 -103.74,-388.47 -67.19,-116.63 -159.08,-209.55 -275.68,-278.75 -116.58,-69.199 -243.05,-103.79 -379.4,-103.79 -83,0 -163.03,14.82 -240.1,44.48 -77.06,29.66 -146.22,71.168 -207.49,124.55 V -0.03 h -346.79 v 1983.9 h 323.08 v -145.31 c 65.21,61.29 137.34,107.75 216.38,139.38 81.02,33.61 165.99,50.41 254.92,50.41" id="path8" inkscape:connector-curvature="0"></path>
      <path d="m 6054.1,2233 c -59.27,0 -110.66,19.77 -154.13,59.31 -41.49,41.51 -62.25,91.92 -62.25,151.23 0,59.31 20.76,108.74 62.25,148.28 43.47,41.51 94.86,62.27 154.13,62.27 59.29,0 109.68,-20.76 151.17,-62.27 43.48,-39.54 65.21,-88.97 65.21,-148.28 0,-59.31 -21.73,-109.72 -65.21,-151.23 -41.49,-39.54 -91.88,-59.31 -151.17,-59.31 z m -174.88,-249.1 h 346.81 V 533.8 h -346.81 v 1450.1" id="path10" inkscape:connector-curvature="0"></path>
      <path d="m 6805.6,1672.5 v -634.6 c 0,-61.291 15.8,-107.74 47.41,-139.37 33.59,-31.64 81.02,-47.449 142.28,-47.449 h 160.06 v -317.3 H 6986.4 c -104.73,0 -196.62,20.758 -275.67,62.27 -79.04,43.5 -140.3,101.81 -183.77,174.97 -43.47,75.109 -65.21,159.14 -65.21,252.06 v 1583.5 h 343.85 v -622.74 h 349.75 v -311.38 H 6805.6" id="path12" inkscape:connector-curvature="0"></path>
      <path d="m 8011.3,812.53 c 81.02,0 155.12,19.77 222.31,59.309 67.18,39.539 120.53,92.922 160.06,160.13 39.53,69.19 59.28,145.31 59.28,228.34 0,83.03 -19.75,158.16 -59.28,225.37 -39.53,69.2 -92.88,123.56 -160.06,163.11 -67.19,39.53 -141.29,59.31 -222.31,59.31 -81.02,0 -155.13,-19.78 -222.31,-59.31 -67.19,-39.55 -120.55,-93.91 -160.07,-163.11 -39.52,-67.21 -59.28,-142.34 -59.28,-225.37 0,-83.03 19.76,-159.15 59.28,-228.34 39.52,-67.208 92.88,-120.59 160.07,-160.13 67.18,-39.539 141.29,-59.309 222.31,-59.309 z m 764.74,1171.3 V 533.73 h -323.09 v 145.31 c -65.2,-61.289 -138.33,-108.74 -219.34,-142.35 -79.05,-31.617 -163.03,-47.437 -251.96,-47.437 -136.35,0 -262.81,34.59 -379.4,103.79 -116.59,69.2 -209.47,162.12 -278.63,278.75 -67.19,118.62 -100.79,248.11 -100.79,388.47 0,138.39 33.6,265.91 100.79,382.54 69.16,118.62 162.04,212.53 278.63,281.72 116.59,69.2 243.05,103.79 379.4,103.79 88.93,0 172.91,-16.8 251.96,-50.41 81.01,-31.63 154.14,-78.09 219.34,-139.38 v 145.31 h 323.09" id="path14" inkscape:connector-curvature="0"></path>
      <path d="m 9009,2606.8 h 346.81 V 533.8 H 9009 v 2073" id="path16" inkscape:connector-curvature="0"></path>
    </g>
  </g>
</svg>
