<?xml version="1.0" encoding="UTF-8" standalone="no"?>
<!-- Created with Inkscape (http://www.inkscape.org/) -->
<svg xmlns:dc="http://purl.org/dc/elements/1.1/" xmlns:cc="http://creativecommons.org/ns#" xmlns:rdf="http://www.w3.org/1999/02/22-rdf-syntax-ns#" xmlns:svg="http://www.w3.org/2000/svg" xmlns="http://www.w3.org/2000/svg" version="1.1" width="892.91339" height="185.66928" id="svg6707">
  <defs id="defs6709"></defs>
  <metadata id="metadata6712"></metadata>
  <g transform="translate(64.992401,-525.43406)" id="layer1">
    <path d="m 537.06326,619.68394 c -1.20103,1.43903 -5.15316,5.75509 -11.50736,5.75509 -6.47603,0 -10.42762,-5.15603 -10.42762,-17.62065 0,-13.06542 4.31152,-17.85979 11.0256,-17.85979 5.39629,0 9.34847,2.99541 10.90938,4.19417 l 0,25.53118 z m -101.23998,2.87698 c -1.0797,0.83996 -4.67195,4.43448 -10.06828,4.43448 -3.95726,0 -7.67135,-1.67712 -7.67135,-7.91057 0,-7.67134 5.5125,-9.58933 17.73963,-10.42816 l 0,13.90425 z m -55.63232,-2.87698 c -1.19532,1.43903 -5.15258,5.75509 -11.50677,5.75509 -6.47037,0 -10.42817,-5.15603 -10.42817,-17.62065 0,-13.06542 4.31714,-17.85979 11.03122,-17.85979 5.39121,0 9.34847,2.99541 10.90372,4.19417 l 0,25.53118 z m -124.56408,2.87698 c -1.07915,0.83996 -4.6714,4.43448 -10.06828,4.43448 -3.95726,0 -7.67139,-1.67712 -7.67139,-7.91057 0,-7.67134 5.51309,-9.58933 17.73967,-10.42816 l 0,13.90425 z m 427.74722,0 c -1.0734,0.83996 -4.6714,4.43448 -10.0677,4.43448 -3.9521,0 -7.6719,-1.67712 -7.6719,-7.91057 0,-7.67134 5.5131,-9.58933 17.7396,-10.42816 l 0,13.90425 z m -55.3109,-9.94813 c 0,5.87298 -2.39634,9.46917 -5.99426,11.26646 -3.35421,1.55805 -7.31146,1.6788 -13.78183,1.6788 l -5.51309,0 0,-25.05168 7.67139,0 c 7.06829,0 9.58652,0.3573 12.10529,1.67708 3.47604,1.79896 5.5125,5.15489 5.5125,10.42934 z m -0.95731,-34.76062 c 0,9.10929 -4.31714,12.46576 -18.22139,12.46576 l -6.11048,0 0,-23.49417 7.67139,0 c 7.19017,0 9.82457,0.36274 12.46517,1.91799 2.75628,1.67821 4.19531,5.15429 4.19531,9.11042 z m -75.54099,58.37436 0,-84.38617 -14.50164,2.15717 0,30.92692 c -3.95785,-3.2369 -8.3912,-6.95326 -16.06255,-6.95326 -13.42815,0 -21.09954,11.14743 -21.09954,30.20712 0,18.57791 8.75108,29.24639 21.81876,29.24639 9.34906,0 15.22145,-6.71235 16.3006,-8.03127 l 0.95786,6.8331 12.58651,0 z m -53.55111,-45.30895 0,-12.94639 c -12.22658,0.1188 -18.81878,8.51132 -20.85578,10.66848 l -1.07915,-9.4703 -12.46463,0 0,57.05716 14.50163,0 0,-37.51858 c 2.28014,-2.15771 7.67135,-7.67193 19.89793,-7.79037 z m -48.28681,45.30895 0,-35.72016 c 0,-12.58651 -0.36274,-22.53518 -18.45889,-22.53518 -10.78809,0 -21.09388,4.55519 -22.17357,5.03528 l 2.51877,8.26932 c 1.3172,-0.3573 8.39061,-2.39694 14.73968,-2.39694 8.39061,0 9.47031,2.99714 9.47031,9.58938 l 0,2.99713 c -12.94639,0.71809 -31.64333,0.3573 -31.64333,18.21858 0,12.10642 6.95158,17.74076 15.82395,17.74076 8.98913,0 15.22145,-6.23345 16.53864,-7.67134 l 1.07915,6.47317 12.10529,0 z m -55.02868,0 0,-84.38617 -14.50734,2.15717 0,30.92692 c -3.9516,-3.2369 -8.38549,-6.95326 -16.05688,-6.95326 -13.42757,0 -21.09896,11.14743 -21.09896,30.20712 0,18.57791 8.75054,29.24639 21.8131,29.24639 9.35414,0 15.22657,-6.71235 16.30626,-8.03127 l 0.95732,6.8331 12.5865,0 z m -62.88257,0 0,-37.15924 c 0,-9.22944 -0.48176,-21.0961 -16.18443,-21.0961 -8.26932,0 -16.06255,5.87352 -19.6548,8.7505 l -1.07915,-7.55232 -12.46462,0 0,57.05716 14.50163,0 0,-41.11364 c 2.27451,-1.43908 7.90944,-5.1543 13.18444,-5.1543 6.47036,0 7.18963,4.55351 7.18963,11.7465 l 0,34.52144 14.5073,0 z m -62.28519,0 0,-35.72016 c 0,-12.58651 -0.36274,-22.53518 -18.45889,-22.53518 -10.7875,0 -21.09383,4.55519 -22.17298,5.03528 l 2.51818,8.26932 c 1.3172,-0.3573 8.3912,-2.39694 14.73968,-2.39694 8.3912,0 9.47035,2.99714 9.47035,9.58938 l 0,2.99713 c -12.94639,0.71809 -31.64333,0.3573 -31.64333,18.21858 0,12.10642 6.95154,17.74076 15.8245,17.74076 8.98854,0 15.22086,-6.23345 16.53806,-7.67134 l 1.07973,6.47317 12.1047,0 z m -48.8349,-2.87698 -2.99995,-8.27045 c -0.83543,0.23805 -4.91511,1.79728 -9.47035,1.79728 -5.99426,0 -6.35415,-3.83542 -6.35415,-8.51136 l 0,-29.48617 15.70262,0 1.43908,-9.70948 -17.1417,0 0,-18.09956 -12.46462,2.15884 -2.03701,15.94072 -9.58652,1.79896 0,7.91052 9.58652,0 0,27.56819 c 0,7.79209 0.23805,13.90538 4.4339,17.62065 2.39634,2.15884 6.11614,3.47604 11.50677,3.47604 9.59218,0 16.06254,-3.59507 17.38541,-4.19418 z m -43.74803,-21.0961 c 0,-13.66452 -8.51304,-18.45948 -20.37974,-22.29486 -10.66621,-3.35706 -17.25845,-5.27504 -17.25845,-12.34732 0,-7.67022 6.47036,-10.90653 13.78241,-10.90653 8.87238,0 16.3006,2.63607 18.09897,3.23631 l 3.35987,-10.06941 c -2.64006,-1.31892 -12.11037,-4.67426 -22.4167,-4.67426 -17.14169,0 -27.69119,8.74941 -27.69119,23.49303 0,22.65479 24.33699,21.09669 33.80222,28.288 2.51818,1.91798 3.71921,4.19531 3.71921,7.43221 0,6.71235 -5.87243,11.50677 -15.10469,11.50677 -10.06828,0 -17.1417,-3.95613 -18.33761,-4.55524 l -5.03699,9.8291 c 0.59797,0.59911 9.7084,6.11329 24.2157,6.11329 18.69694,0 29.24699,-9.35014 29.24699,-25.05109 z M 824.3777,636.2696 800.4,606.42355 l 22.4168,-27.20997 -15.3433,0 -20.4959,25.41101 0,-52.74002 -14.5017,2.15717 0,82.22786 14.5017,0 0,-26.85005 20.7339,26.85005 16.6662,0 z m -64.8924,0 0,-37.15923 c 0,-9.22945 -0.4761,-21.09669 -16.1787,-21.09669 -8.2688,0 -16.062,5.87411 -19.6599,8.75108 l -1.0792,-7.55118 -12.4651,0 0,57.05602 14.5073,0 0,-41.11363 c 2.275,-1.43963 7.9094,-5.15489 13.1844,-5.15489 6.4704,0 7.1896,4.5541 7.1896,11.74654 l 0,34.52198 14.5016,0 z m -62.2018,-0.0567 0,-35.72016 c 0,-12.58651 -0.3628,-22.53518 -18.4646,-22.53518 -10.7875,0 -21.0938,4.55519 -22.173,5.03527 l 2.5182,8.26933 c 1.3178,-0.3573 8.3912,-2.39694 14.7454,-2.39694 8.3912,0 9.4646,2.99713 9.4646,9.58938 l 0,2.99713 c -12.9407,0.71809 -31.6433,0.3573 -31.6433,18.21858 0,12.10642 6.9521,17.74076 15.8245,17.74076 8.9886,0 15.2215,-6.23345 16.5387,-7.67135 l 1.0791,6.47318 12.1104,0 z m -53.75572,-21.69576 c 0,-12.10642 -6.59166,-18.21971 -18.4589,-19.41788 11.0256,-1.79896 16.66053,-8.27218 16.66053,-18.93953 0,-19.65706 -17.02041,-19.89683 -31.64334,-19.89683 l -22.17869,0 0,79.95 19.65992,0 c 14.02554,0 18.22139,-0.48177 23.01468,-2.39803 8.26932,-3.23631 12.9458,-9.82855 12.9458,-19.29773 z M -45.889928,585.59436 5.8009623,688.98012 2.1146223,687.30585 C -24.220798,674.5811 -43.172788,653.36312 -46.355278,623.73693 c -0.87452,-8.12536 -0.41942,-23.00615 0.46476,-38.14257 z m 119.08444,37.50891 c -2.37481,22.13562 -12.99627,39.21271 -28.72101,51.82524 l -21.64701,-42.33958 c -1.71055,-3.34568 -4.42261,-5.56011 -4.42261,-5.56011 6.74695,2.12262 14.73401,7.30752 27.68607,7.30752 12.387,0 22.91438,-7.33754 27.10456,-11.23304 z m -99.33048,-76.623 c 11.08681,-1.55579 24.6968803,-2.86618 39.49211,-2.86618 23.89998,0 44.70593,3.41823 56.51196,5.73014 l 0.64726,6.74183 c -6.86883,3.74701 -15.97925,8.0296 -29.00272,7.34774 -16.89853,-0.88586 -26.21358,-9.59387 -40.3167497,-10.33408 -5.19737,-0.27206 -10.2122401,0.36818 -14.9221903,1.77003 l -12.73613,-8.34414 0.32873,-0.0567 z M 39.802092,695.74294 0.10541228,617.75627 c 4.28939002,-2.82538 9.26572002,-4.48151 14.78388972,-4.48151 11.22505,0 19.30054,7.54271 31.20065,7.54271 7.16184,0 19.73188,-5.50742 27.43103,-11.77429 l -0.19271,-9.82175 c -0.36863,-9.91185 -1.07915,-20.89038 -1.82617,-30.80337 -6.9742,3.86204 -16.33401,8.60658 -29.98833,7.89017 -16.89853,-0.88477 -26.62334,-10.30352 -40.72654972,-11.0426 -8.89446008,-0.46476 -17.77250028,1.33933 -24.97346028,5.44109 l -0.0567,-7.74503 c 0,-1.18742 -0.48743,-2.36633 -1.50537,-3.13429 l -15.51445,-11.68814 c -0.3174,-0.22127 -0.73627,-0.34596 -1.1517,-0.34596 -1.07348,0 -1.94237,0.86944 -1.94237,1.94292 l 0,19.4275 c 0,1.27865 0.64159,2.38161 1.59945,3.08895 l 6.29298,4.66972 64.04502,125.09857 c -4.62153,2.08403 -9.38701,3.92325 -14.24659,5.51985 -37.6376,-12.37621 -69.6244,-39.30108 -74.24592,-82.2426 -1.94292,-18.10749 1.88738,-63.33654 3.50891,-80.8325 0.38541,-4.19984 2.93932,-7.72408 6.96859,-8.56573 11.03121,-2.30112 35.31321,-6.90338 63.76842,-6.90338 28.46084,0 52.73717,4.60226 63.76843,6.90338 4.03489,0.84165 6.58653,4.36589 6.97366,8.56573 1.62213,17.49596 5.45184,62.72501 3.50384,80.8325 -3.48175,32.37561 -22.51083,55.64588 -47.79997,70.44224 z" id="path6648" style="fill:#003895;fill-opacity:1;fill-rule:evenodd;stroke:none"></path>
  </g>
</svg>
