<?xml version="1.0" encoding="UTF-8"?>
<!-- Generator: Adobe Illustrator 24.0.1, SVG Export Plug-In . SVG Version: 6.00 Build 0)  -->
<svg xmlns="http://www.w3.org/2000/svg" xmlns:xlink="http://www.w3.org/1999/xlink" version="1.1" id="Layer_1" x="0px" y="0px" viewBox="0 0 531.3 96.5" style="enable-background:new 0 0 531.3 96.5;" xml:space="preserve">
  <style type="text/css">
	.st0{enable-background:new    ;}
	.st1{fill:#1488CA;}
	.st2{fill:#AFD6F2;}
	.st3{fill:#76B8E6;}
</style>
  <g class="st0">
    <path class="st1" d="M183.3,8.6c1.1,0,1.9,0.9,1.9,2.7c0,3.1-2.6,9.4-6.5,19.6c-3.8,9.8-6.3,15.5-6.3,17.9c0,1.3,0.5,1.9,1.5,1.9   c1.6,0,7.3-4.4,13.9-14c4.3-6.3,8.1-14.7,11.9-25.3c5-1.9,7.7-3.1,8.1-3.1c0.1,0,0.3,0.1,0.3,0.3c0,0.6-1.9,4.4-5.1,11.5   C197.8,32.1,194,40.8,194,48c0,2.7,0.8,4.1,2.2,4.1c1.3,0,2.8-1.1,4.7-3.3l0.5,1.2c-5.7,6.4-10.2,9.4-12.6,9.4   c-2,0-2.6-1.6-2.6-5.1c0-4.6,0.9-10.6,3-16.9l-0.2-0.1c-10.2,15.3-20,22-23.6,22c-1.2,0-1.8-0.7-1.8-1.9c0-1.5,2.5-7.6,6.5-18.6   c4.4-12.1,6.1-19.1,6.1-20.2c0-1.6-0.5-2.3-1.8-2.3c-0.7,0-2,0.7-3.8,1.7l-0.3-1.3C178.1,11.5,182.4,8.6,183.3,8.6z"></path>
    <path class="st1" d="M202.2,59c5.6-15.4,10.5-25.6,10.5-32.4c3.7-1,5.9-2.3,6.9-2.3c0.4,0,0.7,0.3,0.7,0.9c0,2.9-4.2,10.5-8.7,23   l0.5,0.1c4.1-7.2,9.4-13.8,16.1-20.7c4.4-2.1,6.9-3.3,7.7-3.3c0.4,0,0.7,0.3,0.7,0.9c0,1.3-1.8,4.8-4.6,10.7   c-3.9,8-5.5,13.1-5.5,14.9c0,1.4,0.5,2.1,1.5,2.1c0.4,0,1-0.1,1.7-0.5v1.1c-5.7,3.3-8.8,5.2-9.8,5.2s-1.8-0.9-1.8-2.3   c0-2,1.7-6,4.6-12.3c2.5-5.3,4.2-8.4,4.2-9.7c0-0.7-0.3-1-0.9-1c-2.2,0-9.8,7.9-17.4,23.9C206.4,57.6,204.2,58.1,202.2,59z"></path>
    <path class="st1" d="M248.5,24.9c0.2,0,0.3,0.1,0.3,0.3c0,0.8-3.4,6.4-7.7,17.7c-2,5.1-3.2,8.3-3.2,9.9c0,0.8,0.4,1.3,0.9,1.3   c0.9,0,2.4-1.6,4-4.8l-1,4.7c-4.9,3.7-7.9,5.7-9.3,5.7c-1.1,0-2-1.1-2-2.7c0-3.9,5.3-12.9,10.4-28.2   C245.9,26.4,248.2,24.9,248.5,24.9z M247.4,13.3c2.2,0.7,4.4,1.1,6.7,1.1c-1.3,2.9-4.3,4.9-7.3,4.9c-1.5,0-2.8-0.3-4.1-1.1   C244.5,16.6,246.1,15,247.4,13.3z"></path>
    <path class="st1" d="M264.8,15.1c-1.1,3.7-2.6,7.5-4.2,11.5h7.2l-4,2.9l-4.2-0.1c-3.5,11.3-7.2,18.1-7.2,21.3   c0,1.3,0.4,2.1,1.3,2.3c1.7-1.5,3.1-3.3,4.2-5.5l0.9,1.5c-4.8,7.1-8.9,10.5-11.1,10.5c-1.5,0-2.8-1.7-2.8-4.5   c0-3.1,2.1-7.8,4.8-14.6c2.2-5.7,3.5-8.7,3.5-9.5c0-0.9-0.9-1.7-2.6-2.7l2.5-1.9l2.5,0.1c0.7-3.3,1.8-5.9,2.4-8.1   C259.9,17.8,262.2,16.6,264.8,15.1z"></path>
  </g>
  <g class="st0">
    <path class="st1" d="M275.9,46.9c-2.8,7.8-10.4,12.7-13.2,12.7c-2.7,0-4.8-2.7-4.8-6.7c0-5.9,3-13.6,7.7-19.1   c5.1-5.9,10.7-8.7,14.2-8.7c1.5,0,2.6,1,2.6,2.3c0,1.7-1.7,4.9-5.2,7.7c-4.2,3.3-8.2,5.1-11.3,5.3c-1.1,2.5-1.5,5.1-1.5,7.9   c0,3.9,1.5,5.9,4.2,5.9c0.3,0,0.6,0,0.9-0.1c1.5-1.5,2.7-3.9,3.5-7.1L275.9,46.9z M270.1,37.4c0.5,0,1.1-0.1,1.7-0.1   c2.3-1.8,3.5-4.1,3.5-5.7c0-1.2-0.7-2.3-1.8-2.3c-0.3,0-0.7,0.1-1.1,0.3c-2.4,1.9-4,4.3-5.1,7.3C268.1,37.3,269.1,37.4,270.1,37.4z   "></path>
  </g>
  <g class="st0">
    <path class="st1" d="M299.3,51.4c0,1,0.3,1.5,1,1.5c0.5,0,1.5-0.4,2.5-1.3l0.1,1.3c-4.1,4.3-7.4,6.3-9.4,6.3   c-1.1,0-1.7-0.7-1.7-2.2c0-2.1,1.1-6.4,3.6-13.1l-0.3-0.1C288.1,54.2,282.2,59,279.3,59c-1.6,0-2.4-1.1-2.4-3.2   c0-4.8,3-13.9,8.1-20.9c5.1-6.8,12.3-10.3,14.4-10.3c0.9,0,1.5,0.6,2.5,1.7c0.7-3.7,2.6-8.1,4-13.6c2.4-0.6,4.8-1.7,7.5-3.1   C304.2,33.2,299.3,46.9,299.3,51.4z M294.3,28.8c-1.3,0-3.4,2.7-5.9,8c-3.2,6.6-4.4,11.7-4.4,14.1c0,1.1,0.5,1.7,1.3,1.7   c1.9,0,8.5-6.5,14.3-20.9l-0.1-0.2l-1.6,0.9C296.8,30,295.4,28.8,294.3,28.8z"></path>
  </g>
  <g class="st0">
    <path class="st1" d="M345.7,25.8c2.2-1.7,3.2-3.1,3.2-5.1c0-3.1-2.8-5.1-7.5-5.1c-6.7,0-10.5,2.7-10.5,7.7c0,4.9,4.2,6.2,9.7,9   c4,2.1,5.9,3.9,5.9,7.9c0,6-3.9,11.1-11.5,16.4c-2.6,1.9-6.3,3.1-9.5,3.1c-5.5,0-9.1-4.3-9.1-5.3c0-1,1.7-6.4,7.3-13.4l2.4-0.2   c-2.8,2.1-4.1,4.8-4.1,6.3c0,2.8,3.4,5.5,9.3,5.5c7.7,0,10.2-2.5,10.2-7.3c0-3.7-2.8-5.3-7.1-7.3c-5.5-2.6-8.7-4.7-8.7-9.5   c0-3.1,1.8-7.2,5.3-11.3c4.8-5.5,10.1-8.3,15-8.3c5.9,0,8.8,4.9,8.8,6.4c0,0.5-2.2,5.3-7.6,10.7L345.7,25.8z"></path>
  </g>
  <g class="st0">
    <path class="st1" d="M365.4,24.4c-8.1,7.3-12.1,16.7-12.1,23.2c0,3.7,1.8,5.8,4.4,5.8c0.9,0,1.8-0.3,2.7-0.8   c4.5-7.1,6.4-15.3,6.4-19.1c0-2.3-0.7-3.5-2-3.5c-0.5,0-0.9,0.1-1.5,0.5L363,30l7.7-6.5c1.6,0.2,2.6,2.3,2.6,5.8   c0,6.1-3,14-8.8,20.5c-5.9,6.7-10.8,9.6-12.9,9.6c-2.8,0-5-2.5-5-7c0-8.2,5.8-19.1,17.4-28.3L365.4,24.4z"></path>
    <path class="st1" d="M401.1,25.4l0.2,0.2c-7,15.5-10.4,24.3-10.4,26.3c0,1.4,0.6,2,1.9,2c0.6,0,1.4-0.1,2.5-0.5v1   c-5.1,3.7-8.6,5.2-9.5,5.2c-1.1,0-2-0.9-2-2.5c0-2.4,1.1-6.9,3.9-13.1l-0.3-0.1c-7.5,10.4-13.1,15.4-16,15.4   c-1.4,0-2.2-0.7-2.2-2.1c0-1.1,0.7-3.5,2.1-7c3.7-9.1,6.2-14.9,6.2-17.8c0-0.9-0.5-1.3-1.5-1.3c-0.1,0-0.3,0.1-0.6,0.1l-0.2-0.7   c4.4-3.7,7.3-5.5,8.9-5.5c0.9,0,1.4,0.5,1.4,1.6c0,1.3-0.9,4.1-2.8,8.7c-3.4,8.3-5.6,13.3-5.6,15c0,0.7,0.3,1.1,0.9,1.1   c2.2,0,10.7-8,17.3-24.7C397.2,26.3,399.1,25.9,401.1,25.4z"></path>
  </g>
  <g class="st0">
    <path class="st1" d="M418.3,15.1c-1.1,3.7-2.6,7.5-4.2,11.5h7.2l-4,2.9l-4.2-0.1c-3.5,11.3-7.2,18.1-7.2,21.3   c0,1.3,0.4,2.1,1.3,2.3c1.7-1.5,3.1-3.3,4.2-5.5l0.9,1.5c-4.8,7.1-8.9,10.5-11.1,10.5c-1.5,0-2.8-1.7-2.8-4.5   c0-3.1,2.1-7.8,4.8-14.6c2.2-5.7,3.5-8.7,3.5-9.5c0-0.9-0.9-1.7-2.6-2.7l2.5-1.9l2.5,0.1c0.7-3.3,1.8-5.9,2.4-8.1   C413.4,17.8,415.8,16.6,418.3,15.1z"></path>
  </g>
  <g class="st0">
    <path class="st1" d="M429.6,12.2c2-0.5,4.4-1.4,7.3-2.5c-7.7,19.3-13.1,32.2-16.2,38.9l0.4,0.2c5.1-7.9,10.4-15.1,16.8-20.7   c3.8-2.1,5.9-3.3,6.7-3.3c0.7,0,1.3,0.7,1.3,1.8c0,1.3-2.3,6.2-6.1,14.7c-2.6,5.6-3.9,9-3.9,10.1c0,1.1,0.7,1.7,2,1.7   c0.3,0,0.6-0.1,1.1-0.1l-0.4,1c-5.8,3.4-9,5.2-9.6,5.2c-0.9,0-1.5-0.7-1.5-1.7c0-1.5,1.3-4.3,3.4-8.9c3.5-7.5,6.1-11.9,6.1-13.7   c0-0.7-0.3-1.1-0.9-1.1c-1.9,0-9.4,7.3-17.6,22.8c-2.4,0.7-4.8,1.7-7.5,3.1C421.1,34.6,427.4,18.8,429.6,12.2z"></path>
    <path class="st1" d="M461.5,46.9c-2.8,7.8-10.4,12.7-13.2,12.7c-2.7,0-4.8-2.7-4.8-6.7c0-5.9,3-13.6,7.7-19.1   c5.1-5.9,10.7-8.7,14.2-8.7c1.5,0,2.6,1,2.6,2.3c0,1.7-1.7,4.9-5.2,7.7c-4.2,3.3-8.2,5.1-11.3,5.3c-1.1,2.5-1.5,5.1-1.5,7.9   c0,3.9,1.5,5.9,4.2,5.9c0.3,0,0.6,0,0.9-0.1c1.5-1.5,2.7-3.9,3.5-7.1L461.5,46.9z M455.7,37.4c0.5,0,1.1-0.1,1.7-0.1   c2.3-1.8,3.5-4.1,3.5-5.7c0-1.2-0.7-2.3-1.8-2.3c-0.3,0-0.7,0.1-1.1,0.3c-2.4,1.9-4,4.3-5.1,7.3C453.7,37.3,454.7,37.4,455.7,37.4z   "></path>
    <path class="st1" d="M487.3,52.5c-4.1,4.6-8,6.6-9.6,6.6c-1.1,0-1.8-0.8-1.8-2.4c0-2.3,1-5.9,3.2-10.6l-0.3-0.1   c-6.7,9.1-12.1,13.2-14.5,13.2c-1.5,0-2.1-1.2-2.1-3.7c0-3.9,1.5-9.1,4.6-14.9c2.7-5,5.7-8.7,8.7-11.1c4.1-3.3,8.8-4.7,9.4-4.7   c0.9,0,2.7,1.1,3.5,2.9c1.8-0.7,2.7-1.8,3.2-1.8c0.3,0,0.4,0.1,0.4,0.3c0,0.7-1.7,3.6-4,9.3c-3.4,8.1-5.1,13.5-5.1,16.1   c0,1,0.4,1.5,1,1.5c0.7,0,1.8-0.7,3-2.3L487.3,52.5z M479.9,28.6c-0.7,0-2.1,1.1-3.8,3.5c-4.1,6.1-6.5,14.5-6.5,17.9   c0,1.7,0.5,2.5,1.2,2.5c1.3,0,5-3.4,8.7-9.8c1.5-2.6,2.8-6.7,5.4-11.6l-0.1-0.2l-1.4,1C482.8,29.8,481.1,28.6,479.9,28.6z"></path>
  </g>
  <g class="st0">
    <path class="st1" d="M506.7,36.9c0.6-1,0.9-1.9,0.9-2.7c0-2.3-2-4.1-5.2-4.1c-2.6,0-5.2,1.7-5.2,3.7c0,1.9,1.9,3.3,5.3,5.6   c2.7,1.9,4.6,2.9,4.6,5.7c0,1.8-1.4,4.3-4.2,7.5c-3.9,4.5-6.5,6.7-10,6.7c-3.2,0-5.5-1.6-6.3-4.4c1.5-2.8,3.8-5.7,6.8-8.8l0.8,0.4   c-1.1,1.3-1.6,2.3-1.6,3.4c0,2.1,1.8,3.6,4.6,3.6c3.2,0,5.5-1.9,5.5-3.7c0-2-2-3.3-4.8-5.1c-3.3-2.1-5.1-3.9-5.1-6.7   c0-1.9,1-3.7,2.9-5.9c3.7-4.4,8.1-7,11.2-7c3.2,0,5.7,2.3,5.7,3.7c0,0.7-1.8,3.4-5.2,8.3L506.7,36.9z"></path>
    <path class="st1" d="M528.7,15.1c-1.1,3.7-2.6,7.5-4.2,11.5h7.2l-4,2.9l-4.2-0.1c-3.5,11.3-7.2,18.1-7.2,21.3   c0,1.3,0.4,2.1,1.3,2.3c1.7-1.5,3.1-3.3,4.2-5.5l0.9,1.5c-4.8,7.1-8.9,10.5-11.1,10.5c-1.5,0-2.8-1.7-2.8-4.5   c0-3.1,2.1-7.8,4.8-14.6c2.2-5.7,3.5-8.7,3.5-9.5c0-0.9-0.9-1.7-2.6-2.7l2.5-1.9l2.5,0.1c0.7-3.3,1.8-5.9,2.4-8.1   C523.8,17.8,526.2,16.6,528.7,15.1z"></path>
  </g>
  <g class="st0">
    <path class="st1" d="M309,67c1.4,0,3.9,0,7.4-0.1l0.3,3.5h-0.6c-0.5-2.3-1.9-2.8-5-2.8c-1.4,0-1.7,0-1.7,1.5v4.8c0.2,0,0.3,0,0.5,0   c2.2,0,3.1-0.8,3.3-2.8h0.7c0,1.2-0.1,2.3-0.1,3.2c0,1,0,2,0.1,2.9h-0.7c-0.2-1.9-1.1-2.6-3.2-2.6c-0.2,0-0.4,0-0.6,0v4.5   c0,1.7,0.3,2.2,2.4,2.2v0.7c-0.9-0.1-2.1-0.1-3.8-0.1c-1.6,0-2.8,0-3.6,0.1v-0.7c1.9,0,2.3-0.5,2.3-2.3v-9.5c0-1.6-0.4-2.1-2.3-2.1   v-0.7C305.8,67,307.3,67,309,67z"></path>
    <path class="st1" d="M320.8,76.2c0,0.5-0.1,0.8-0.1,1c0,2.6,1.4,4.3,3.5,4.3c1.1,0,2-0.5,2.9-1.5l0.5,0.5c-1,1.4-2.4,2.1-4.2,2.1   c-3.2,0-5.5-2.2-5.5-5.2c0-3,2.4-5.5,5.5-5.5c2.7,0,4.5,1.6,4.5,4.2c0,0.1,0,0.1,0,0.2H320.8z M325.6,74.9c0-1.5-0.9-2.3-2.1-2.3   c-1.4,0-2.4,1-2.6,2.9h4.6C325.5,75.2,325.6,75.1,325.6,74.9z"></path>
    <path class="st1" d="M340.5,79.6c0,1,0.5,1.5,1.6,1.5c0,0,0.1,0,0.1,0v0.5c-1.2,0.2-2.4,0.5-3.5,0.9c-0.1-0.5-0.3-1.1-0.4-1.8   c-1,1.2-2.1,1.8-3.6,1.8c-2.9,0-5-2.2-5-5.1c0-3.2,2.2-5.4,5-5.4c1.4,0,2.6,0.5,3.5,1.4v-4.9c0-1.3-0.2-1.5-1.8-1.5v-0.6   c1.5-0.1,2.9-0.3,4.2-0.6V79.6z M335.3,72.9c-1.8,0-2.9,1.6-2.9,4.4c0,2.7,1,4.2,2.9,4.2c1.8,0,2.8-1,2.8-3v-2.9   C338,73.8,337,72.9,335.3,72.9z"></path>
    <path class="st1" d="M346.3,76.2c0,0.5-0.1,0.8-0.1,1c0,2.6,1.4,4.3,3.5,4.3c1.1,0,2-0.5,2.9-1.5l0.5,0.5c-1,1.4-2.4,2.1-4.2,2.1   c-3.2,0-5.5-2.2-5.5-5.2c0-3,2.4-5.5,5.5-5.5c2.7,0,4.5,1.6,4.5,4.2c0,0.1,0,0.1,0,0.2H346.3z M351,74.9c0-1.5-0.9-2.3-2.1-2.3   c-1.4,0-2.4,1-2.6,2.9h4.6C351,75.2,351,75.1,351,74.9z"></path>
    <path class="st1" d="M358.8,74.1c0.8-1.4,1.9-2.1,3.2-2.1c1.1,0,1.8,0.6,1.8,1.4c0,0.6-0.3,0.9-0.9,0.9c-0.5,0-0.7-0.2-1-0.6   c-0.3-0.4-0.3-0.6-0.9-0.6c-1.2,0-2.1,1.1-2.1,2.8v4.3c0,1.1,0.3,1.3,1.6,1.4v0.6c-1.3-0.1-2.2-0.1-2.9-0.1c-0.8,0-1.7,0-2.8,0.1   v-0.6c1.3-0.1,1.6-0.3,1.6-1.4V75c0-1.4-0.3-1.8-1.6-1.8c-0.1,0-0.1,0-0.2,0v-0.6c1.2-0.1,2.4-0.4,3.7-0.8   C358.6,72.5,358.7,73.3,358.8,74.1z"></path>
    <path class="st1" d="M367.4,82.5c-1.6,0-2.6-0.9-2.6-2.3c0-1.6,1.3-2.5,3.8-3.5l1.4-0.5c0.8-0.3,1.1-0.4,1.1-1v-0.8   c0-1.3-0.6-1.8-2-1.8c-1.1,0-1.8,0.5-1.8,1.1c-0.1,0.9-0.1,1.4-1.1,1.4c-0.6,0-1-0.4-1-1c0-1.2,1.5-2.2,4.1-2.2   c2.9,0,4.3,0.9,4.3,2.7v5.6c0,0.7,0.2,1,0.6,1c0.3,0,0.5-0.1,0.8-0.4l0.4,0.4c-0.5,0.7-1.3,1.2-2.2,1.2c-1.1,0-1.9-0.5-2.1-1.5   C370,82,368.7,82.5,367.4,82.5z M367.4,79.7c0,1,0.6,1.6,1.4,1.6c1.1,0,2.3-0.8,2.3-1.9v-2.8C368.6,77.4,367.4,78.4,367.4,79.7z"></path>
    <path class="st1" d="M380.3,80.2c0,1.1,0.3,1.4,1.6,1.4v0.6c-1.2-0.1-2.1-0.1-2.9-0.1s-1.7,0-2.8,0.1v-0.6c1.4,0,1.6-0.3,1.6-1.4   V68.4c0-0.8-0.5-1.2-1.6-1.2v-0.5c1-0.1,2.4-0.3,4-0.8V80.2z"></path>
    <path class="st1" d="M403.1,67h0.5l0.2,4.4h-0.6c-0.6-2.6-2.3-4-4.8-4c-3.1,0-5.2,2.7-5.2,7.5c0,4.3,2.1,6.9,5.3,6.9   c2.6,0,4.4-1.7,5-4.8h0.6v5h-0.5l-0.4-1.2c-1.7,1.2-3.4,1.8-5.2,1.8c-4.7,0-8-3.1-8-7.6c0-1.8,0.4-3.4,1.4-4.8   c1.5-2.2,4-3.5,6.8-3.5c1.8,0,3.3,0.5,4.8,1.5L403.1,67z"></path>
    <path class="st1" d="M410.6,74.1c0.8-1.4,1.9-2.1,3.2-2.1c1.1,0,1.8,0.6,1.8,1.4c0,0.6-0.3,0.9-0.9,0.9c-0.5,0-0.7-0.2-1-0.6   c-0.3-0.4-0.3-0.6-0.9-0.6c-1.2,0-2.1,1.1-2.1,2.8v4.3c0,1.1,0.3,1.3,1.6,1.4v0.6c-1.3-0.1-2.2-0.1-2.9-0.1c-0.8,0-1.7,0-2.8,0.1   v-0.6c1.3-0.1,1.6-0.3,1.6-1.4V75c0-1.4-0.3-1.8-1.6-1.8c-0.1,0-0.1,0-0.2,0v-0.6c1.2-0.1,2.4-0.4,3.7-0.8   C410.4,72.5,410.6,73.3,410.6,74.1z"></path>
    <path class="st1" d="M419.5,76.2c0,0.5-0.1,0.8-0.1,1c0,2.6,1.4,4.3,3.5,4.3c1.1,0,2-0.5,2.9-1.5l0.5,0.5c-1,1.4-2.4,2.1-4.2,2.1   c-3.2,0-5.5-2.2-5.5-5.2c0-3,2.4-5.5,5.5-5.5c2.7,0,4.5,1.6,4.5,4.2c0,0.1,0,0.1,0,0.2H419.5z M424.3,74.9c0-1.5-0.9-2.3-2.1-2.3   c-1.4,0-2.4,1-2.6,2.9h4.6C424.3,75.2,424.3,75.1,424.3,74.9z"></path>
    <path class="st1" d="M439.2,79.6c0,1,0.5,1.5,1.6,1.5c0,0,0.1,0,0.1,0v0.5c-1.2,0.2-2.4,0.5-3.5,0.9c-0.1-0.5-0.3-1.1-0.4-1.8   c-1,1.2-2.1,1.8-3.6,1.8c-2.9,0-5-2.2-5-5.1c0-3.2,2.2-5.4,5-5.4c1.4,0,2.6,0.5,3.5,1.4v-4.9c0-1.3-0.2-1.5-1.8-1.5v-0.6   c1.5-0.1,2.9-0.3,4.2-0.6V79.6z M434,72.9c-1.8,0-2.9,1.6-2.9,4.4c0,2.7,1,4.2,2.9,4.2c1.8,0,2.8-1,2.8-3v-2.9   C436.8,73.8,435.7,72.9,434,72.9z"></path>
    <path class="st1" d="M446.2,80.2c0,1,0.2,1.4,1.5,1.4v0.6c-0.7-0.1-1.6-0.1-2.7-0.1c-1,0-2,0-2.8,0.1v-0.6c1.3-0.1,1.5-0.4,1.5-1.4   v-5.1c0-1.4,0-1.9-1.3-1.9c0,0-0.1,0-0.1,0v-0.6c1.1-0.1,2.4-0.4,3.9-0.9V80.2z M446.1,67.4c0,0.8-0.6,1.4-1.4,1.4   c-0.8,0-1.4-0.6-1.4-1.4s0.6-1.4,1.4-1.4C445.5,66,446.1,66.6,446.1,67.4z"></path>
    <path class="st1" d="M452.6,69.4v2.7h2.6V73h-2.6v6.7c0,1.2,0.3,1.7,1.2,1.7c0.6,0,1.1-0.3,1.5-1l0.5,0.4c-0.7,1-1.6,1.5-2.9,1.5   c-2.1,0-2.8-0.9-2.8-2.9V73h-1.1v-0.6c1.2-0.5,2.2-1.5,2.9-3H452.6z"></path>
    <path class="st1" d="M477.9,67c0.9,0,1.8,0,2.5-0.1v0.7c-1.9,0.1-2.1,0.7-2.1,2.5v5.8c0,4.7-1.7,6.7-6.4,6.7   c-4.2,0-6.3-1.8-6.3-5.5v-7.2c0-1.7-0.3-2.2-2.2-2.3v-0.6c1.3,0.1,2.5,0.1,3.7,0.1c1.2,0,2.4,0,3.6-0.1v0.6c-1.9,0-2.3,0.5-2.3,2.2   V77c0,3.1,1.2,4.5,4.1,4.5c3.5,0,4.9-1.6,4.9-5.3v-6.1c0-1.9-0.3-2.5-2.1-2.5v-0.6C476,67,476.8,67,477.9,67z"></path>
    <path class="st1" d="M489.7,71.9c2.4,0,3.4,1.2,3.4,3.6v4.7c0,1.1,0.2,1.4,1.6,1.4v0.6c-1.2-0.1-2.2-0.1-2.8-0.1   c-0.9,0-1.8,0-2.8,0.1v-0.6c1.3,0,1.5-0.3,1.5-1.4v-5c0-1.5-0.6-2.3-1.9-2.3c-1.5,0-2.7,1.3-2.7,3.1v4c0,1.1,0.2,1.4,1.6,1.5v0.6   c-1.2-0.1-2.2-0.1-2.8-0.1c-0.8,0-1.8,0-2.8,0.1v-0.6c1.4-0.1,1.6-0.3,1.6-1.4v-5.3c0-1.3-0.3-1.6-1.5-1.6c0,0-0.1,0-0.1,0v-0.6   c1.1,0,2.3-0.3,3.6-0.9c0.1,0.8,0.2,1.5,0.3,2.3C486.9,72.6,488.1,71.9,489.7,71.9z"></path>
    <path class="st1" d="M499.9,80.2c0,1,0.2,1.4,1.5,1.4v0.6c-0.7-0.1-1.6-0.1-2.7-0.1c-1,0-2,0-2.8,0.1v-0.6c1.3-0.1,1.5-0.4,1.5-1.4   v-5.1c0-1.4,0-1.9-1.3-1.9c0,0-0.1,0-0.1,0v-0.6c1.1-0.1,2.4-0.4,3.9-0.9V80.2z M499.9,67.4c0,0.8-0.6,1.4-1.4,1.4   c-0.8,0-1.4-0.6-1.4-1.4s0.6-1.4,1.4-1.4C499.3,66,499.9,66.6,499.9,67.4z"></path>
    <path class="st1" d="M514.1,77.1c0,3.1-2.3,5.4-5.8,5.4c-3.1,0-5.5-2.2-5.5-5.2c0-3.1,2.5-5.4,5.6-5.4   C511.8,71.9,514.1,74.2,514.1,77.1z M505.6,77.3c0,3.1,1,4.6,2.9,4.6c2,0,2.9-1.5,2.9-4.8c0-3-1-4.5-3-4.5   C506.7,72.6,505.6,74.2,505.6,77.3z"></path>
    <path class="st1" d="M523.3,71.9c2.4,0,3.4,1.2,3.4,3.6v4.7c0,1.1,0.2,1.4,1.6,1.4v0.6c-1.2-0.1-2.2-0.1-2.8-0.1   c-0.9,0-1.8,0-2.8,0.1v-0.6c1.3,0,1.5-0.3,1.5-1.4v-5c0-1.5-0.6-2.3-1.9-2.3c-1.5,0-2.7,1.3-2.7,3.1v4c0,1.1,0.2,1.4,1.6,1.5v0.6   c-1.2-0.1-2.2-0.1-2.8-0.1c-0.8,0-1.8,0-2.8,0.1v-0.6c1.4-0.1,1.6-0.3,1.6-1.4v-5.3c0-1.3-0.3-1.6-1.5-1.6c0,0-0.1,0-0.1,0v-0.6   c1.1,0,2.3-0.3,3.6-0.9c0.1,0.8,0.2,1.5,0.3,2.3C520.5,72.6,521.7,71.9,523.3,71.9z"></path>
  </g>
  <g>
    <path class="st2" d="M138.6,20.7c-9.2,0-31,11-31,15.2s13.5-0.2,22.1-1.2c5-0.6,10.8-1.3,14.8,0.7c2.9-0.7,9.1-1.8,11.3-0.3V19.8   c-1.1,1.7-2.8,3.7-5.1,6.2C150.8,26,147.8,20.7,138.6,20.7z"></path>
    <path class="st2" d="M154.3,45.8c0,0-1.4,0.2-0.6-2.3c0.7-2.4-0.2-6.7-6.3-5.5c1.1,1.6,1.8,3.8,1.8,6.8c0,4.4-2.4,8.5-6.9,12.8   h13.6v-13C155.5,44.9,155,45.3,154.3,45.8z"></path>
    <path class="st2" d="M37.2,38.3C21,54.6,26.6,55.4,28.6,55.4s7.3-0.2,65.5-45.1c0,0,2.8-1.9,7.2-1.9c4.4,0,5.8,0.2,1.4,3.9   s-29.3,26.8-42,40.3c-1.7,1.8-3,3.4-4.2,4.8h32.7c8.7-4.4,17.1-8.6,20.9-10.3c0,0-7.5,1.7-14.8,1.4s-10.1-7,0.2-14.5   s38-21.5,56.9-22.6c0,0,1.9-0.1,3.4,0.6V8c0-4.4-3.6-7.2-8-7.2H8C3.6,1,0,3.8,0,8.1v17C9.3,20.4,39.6,5.3,52.9,5.3   C68.8,5.3,53.4,22,37.2,38.3z"></path>
    <path class="st3" d="M32.6,62.7c-7.8,5.7-13.3,8.4-17,9.6h27.1c0.4-2.6,1.5-5.8,4-9.6C46.7,62.7,32.6,62.7,32.6,62.7z"></path>
    <path class="st2" d="M67.2,38.1c0,0-12.4,7.5-27.8,19.3h11.2C62.3,42.5,67.2,38.1,67.2,38.1z"></path>
    <path class="st3" d="M79,62.7H53.1c-3,5.8-0.8,8.2,0.2,9.2c0.2,0.2,0.4,0.3,0.7,0.5h6.6c1.4-0.4,2.9-1,4.2-1.9   C66.4,69.4,72.1,66.3,79,62.7z"></path>
    <path class="st2" d="M44,19.6c4.5-4.8,6.2-8.9-0.8-7.5C36.5,13.5,19.4,18.6,0,31.9v25.6h8C16.6,45.8,39.7,24.3,44,19.6z"></path>
    <path class="st3" d="M135.6,62.7c-4.4,3.1-9.9,6.3-16.4,9.6h36.6v-9.6C155.8,62.7,135.6,62.7,135.6,62.7z"></path>
    <path class="st3" d="M4.8,62.7H0v9.6h6.5C4.4,70.9,2.5,68,4.8,62.7z"></path>
    <path class="st1" d="M47,82.8c0,0-2.7-1.5-3.9-5.1H0v11.6c0,4.4,3.6,7.2,8,7.2h32C38.8,94.6,39.5,90.7,47,82.8z"></path>
    <path class="st1" d="M97.1,83.3C81,90.8,68.2,94.6,59.3,96.5H148c4.4,0,8-2.9,8-7.2V77.7h-47.1C105.1,79.5,101.2,81.3,97.1,83.3z"></path>
    <path class="st1" d="M59.9,84c-4.5,5.1,4.6,11.1,39.3-6.4H66.9C63.5,80.4,61.1,82.6,59.9,84z"></path>
    <path class="st3" d="M73.7,72.4h35.5c6.9-3.8,12.1-7,16-9.6H88.3C82.7,66.1,77.9,69.4,73.7,72.4z"></path>
    <path class="st2" d="M136.4,50.9c0.2-4.7-4.4-5.1-4.4-5.1c-7.8-0.6-18,3.7-18,3.7c-5.8,2.5-11.4,5.2-16.5,7.9H132   C137.5,52.6,136.4,50.9,136.4,50.9z"></path>
  </g>
</svg>
